<svg width="29" height="29" viewBox="0 0 29 29" fill="none" xmlns="http://www.w3.org/2000/svg">
<path d="M14.5 2.71875C8.004 2.71875 2.71875 8.004 2.71875 14.5C2.71875 20.996 8.004 26.2812 14.5 26.2812C20.996 26.2812 26.2812 20.996 26.2812 14.5C26.2812 8.004 20.996 2.71875 14.5 2.71875ZM14.5 4.53125C20.0163 4.53125 24.4688 8.98366 24.4688 14.5C24.4688 20.0163 20.0163 24.4688 14.5 24.4688C8.98366 24.4688 4.53125 20.0163 4.53125 14.5C4.53125 8.98366 8.98366 4.53125 14.5 4.53125ZM13.5938 9.0625V13.5938H9.0625V15.4062H13.5938V19.9375H15.4062V15.4062H19.9375V13.5938H15.4062V9.0625H13.5938Z" fill="#181F1F"/>
</svg>
