<svg width="41" height="40" viewBox="0 0 41 40" fill="none" xmlns="http://www.w3.org/2000/svg">
<path d="M36.3971 23.1405C36.5429 23.1396 36.6824 23.0812 36.7854 22.978C36.8883 22.8747 36.9463 22.735 36.9468 22.5892V5.72205C37.3423 5.55476 37.667 5.25477 37.8651 4.87376C38.0631 4.49275 38.1221 4.05459 38.0318 3.63477C38.0289 3.2021 37.8557 2.78799 37.5498 2.48204C37.2438 2.17609 36.8297 2.00292 36.3971 2L3.6746 2C3.24194 2.00292 2.82782 2.17609 2.52188 2.48204C2.21593 2.78799 2.04276 3.2021 2.03983 3.63477C1.95084 4.05629 2.01202 4.49567 2.21279 4.87684C2.41356 5.25802 2.74129 5.557 3.13924 5.72205V22.5892C3.1384 22.661 3.15177 22.7323 3.17858 22.7989C3.20538 22.8656 3.2451 22.9262 3.29545 22.9775C3.3458 23.0287 3.40578 23.0695 3.47194 23.0975C3.5381 23.1254 3.60914 23.14 3.68098 23.1405H12.9224V27.6719C12.2675 27.1429 9.82809 27.4313 9.03779 27.3628C8.75107 27.3632 8.46725 27.4202 8.20255 27.5304C7.93786 27.6406 7.69749 27.8019 7.49519 28.0051C7.2929 28.2083 7.13264 28.4493 7.0236 28.7145C6.91455 28.9797 6.85885 29.2638 6.85969 29.5505V30.5527H4.21634C3.6402 30.5527 3.08756 30.7811 2.67957 31.1879C2.27158 31.5947 2.04152 32.1467 2.03983 32.7228V37.4646C2.04151 37.6072 2.09933 37.7433 2.20074 37.8435C2.30215 37.9438 2.43899 38 2.58157 38H8.6522C8.79603 38.0017 8.93467 37.9463 9.03771 37.8459C9.14076 37.7455 9.19981 37.6084 9.20191 37.4646V32.7228C9.20091 32.3081 9.08187 31.9021 8.85868 31.5525C8.63549 31.203 8.31739 30.9241 7.94157 30.7487V29.5505C7.94136 29.4081 7.96923 29.267 8.02359 29.1354C8.07794 29.0037 8.15772 28.8841 8.25835 28.7833C8.35898 28.6825 8.47849 28.6026 8.61005 28.548C8.74161 28.4935 8.88263 28.4654 9.02504 28.4654H11.8245C12.1123 28.4654 12.3883 28.5797 12.5918 28.7832C12.7953 28.9867 12.9096 29.2627 12.9096 29.5505V30.7487C12.5344 30.9251 12.2169 31.2042 11.9936 31.5535C11.7703 31.9028 11.6503 32.3082 11.6477 32.7228V37.4646C11.651 37.608 11.7105 37.7444 11.8132 37.8445C11.916 37.9446 12.0539 38.0004 12.1974 38H18.2664C18.4093 38.0004 18.5465 37.9444 18.6483 37.8441C18.75 37.7438 18.8081 37.6074 18.8098 37.4646V32.7228C18.8085 32.3077 18.689 31.9016 18.4652 31.5519C18.2414 31.2023 17.9227 30.9237 17.5462 30.7487V29.5505C17.5483 29.2617 17.6646 28.9855 17.8697 28.7822C18.0748 28.5789 18.3521 28.465 18.6409 28.4654H21.4308C21.5739 28.4646 21.7158 28.492 21.8482 28.5461C21.9807 28.6003 22.1012 28.68 22.2027 28.7809C22.3043 28.8817 22.385 29.0016 22.4401 29.1336C22.4952 29.2657 22.5236 29.4074 22.5238 29.5505V30.7487C22.1478 30.9241 21.8295 31.2028 21.6061 31.5524C21.3826 31.902 21.2632 32.3079 21.2619 32.7228V37.4646C21.2636 37.6072 21.3214 37.7433 21.4228 37.8435C21.5242 37.9438 21.6611 38 21.8036 38H27.8743C28.0169 38 28.1537 37.9438 28.2551 37.8435C28.3565 37.7433 28.4143 37.6072 28.416 37.4646V32.7228C28.4149 32.3077 28.2955 31.9014 28.0717 31.5518C27.8479 31.2021 27.529 30.9235 27.1525 30.7487V29.5505C27.1546 29.2617 27.2709 28.9855 27.476 28.7822C27.6811 28.5789 27.9583 28.465 28.2471 28.4654H31.0466C31.3353 28.465 31.6123 28.5789 31.8172 28.7823C32.022 28.9856 32.138 29.2618 32.1396 29.5505V30.7487C31.7632 30.9237 31.4445 31.2023 31.2207 31.5519C30.9969 31.9016 30.8774 32.3077 30.8761 32.7228V37.4646C30.8778 37.6074 30.9358 37.7438 31.0376 37.8441C31.1394 37.9444 31.2766 38.0004 31.4195 38H37.4901C37.6327 38 37.7695 37.9438 37.8709 37.8435C37.9723 37.7433 38.0302 37.6072 38.0318 37.4646V32.7228C38.0308 32.4368 37.9734 32.1538 37.863 31.8899C37.7526 31.626 37.5912 31.3865 37.3882 31.185C37.1853 30.9835 36.9446 30.8239 36.6799 30.7154C36.4152 30.6069 36.1318 30.5516 35.8458 30.5527H33.2231V29.5505C33.2242 29.2638 33.1687 28.9798 33.0598 28.7146C32.9509 28.4495 32.7908 28.2084 32.5887 28.0052C32.3865 27.802 32.1462 27.6406 31.8816 27.5304C31.617 27.4202 31.3333 27.3632 31.0466 27.3628C30.2404 27.4377 27.8313 27.1381 27.1525 27.6719V23.1405H36.3971ZM8.11047 36.9133H3.13924V32.7228C3.13903 32.5804 3.1669 32.4393 3.22126 32.3077C3.27561 32.1761 3.35539 32.0564 3.45602 31.9557C3.55665 31.8549 3.67616 31.7749 3.80772 31.7204C3.93927 31.6658 4.08029 31.6377 4.22271 31.6377H7.01743C7.30608 31.6373 7.58313 31.7512 7.78798 31.9546C7.99283 32.158 8.10878 32.4342 8.11047 32.7228V36.9133ZM36.95 32.7228V36.9133H31.9612V32.7228C31.9629 32.4342 32.0788 32.158 32.2837 31.9546C32.4885 31.7512 32.7656 31.6373 33.0542 31.6377H35.8458C36.1355 31.636 36.4141 31.7493 36.6205 31.9527C36.8269 32.1561 36.9442 32.4331 36.9468 32.7228H36.95ZM3.13924 4.18447C3.12171 3.75268 3.06595 3.10578 3.6746 3.101H36.3971C36.5403 3.10053 36.6779 3.15612 36.7807 3.25588C36.8834 3.35563 36.943 3.49162 36.9468 3.63477V4.18447C36.9468 4.33026 36.8888 4.47008 36.7858 4.57317C36.6827 4.67626 36.5429 4.73417 36.3971 4.73417H3.6746C3.53078 4.73207 3.39365 4.67303 3.2933 4.56998C3.19294 4.46694 3.13754 4.3283 3.13924 4.18447ZM4.22271 22.0538V5.82402H35.8458V22.0538H27.1525V20.8413C27.6146 20.7951 28.765 21.0675 28.765 20.3075V16.9615C28.7612 16.8181 28.7014 16.6818 28.5983 16.582C28.4952 16.4822 28.3571 16.4268 28.2137 16.4277H20.5816V15.0303C20.8301 14.9071 21.0297 14.7034 21.1479 14.4524C21.2661 14.2014 21.2959 13.9178 21.2326 13.6477C21.1693 13.3776 21.0166 13.1368 20.7992 12.9644C20.5818 12.7921 20.3125 12.6983 20.035 12.6983C19.7576 12.6983 19.4883 12.7921 19.2709 12.9644C19.0535 13.1368 18.9007 13.3776 18.8374 13.6477C18.7741 13.9178 18.804 14.2014 18.9222 14.4524C19.0404 14.7034 19.24 14.9071 19.4885 15.0303V16.4213H11.858C11.7867 16.4201 11.7159 16.4329 11.6496 16.459C11.5833 16.4852 11.5228 16.5242 11.4716 16.5738C11.4203 16.6234 11.3794 16.6826 11.3511 16.748C11.3228 16.8134 11.3077 16.8838 11.3067 16.9551V20.3011C11.3067 21.058 12.4523 20.7903 12.9096 20.8349V22.0474L4.22271 22.0538ZM12.4061 19.7578V17.5064H27.6767V19.7578H12.4061ZM17.7167 36.9133H12.7391V32.7228C12.7408 32.4342 12.8568 32.158 13.0616 31.9546C13.2665 31.7512 13.5435 31.6373 13.8322 31.6377H16.6333C16.9208 31.6382 17.1963 31.7527 17.3995 31.9561C17.6026 32.1596 17.7167 32.4353 17.7167 32.7228V36.9133ZM21.4308 27.3628H18.6409C18.3534 27.3622 18.0686 27.4183 17.8029 27.5281C17.5372 27.6378 17.2958 27.7989 17.0925 28.0022C16.8893 28.2054 16.7282 28.4468 16.6184 28.7125C16.5087 28.9782 16.4526 29.263 16.4532 29.5505V30.5527H14.0106V20.8333H26.069V30.5527H23.6169V29.5505C23.6177 29.2631 23.5618 28.9784 23.4522 28.7127C23.3427 28.447 23.1817 28.2055 22.9786 28.0023C22.7754 27.799 22.5341 27.6378 22.2685 27.5281C22.0029 27.4183 21.7182 27.3622 21.4308 27.3628ZM27.3262 36.9133H22.3549V32.7228C22.3552 32.5798 22.3836 32.4383 22.4386 32.3063C22.4936 32.1744 22.5741 32.0546 22.6755 31.9538C22.7769 31.853 22.8971 31.7732 23.0294 31.7189C23.1617 31.6647 23.3034 31.6371 23.4464 31.6377H26.2427C26.5313 31.6373 26.8084 31.7512 27.0132 31.9546C27.2181 32.158 27.334 32.4342 27.3357 32.7228L27.3262 36.9133Z" fill="#E8C900"/>
</svg>
