<svg width="24" height="23" viewBox="0 0 24 23" fill="none" xmlns="http://www.w3.org/2000/svg">
<path d="M2.29004 6.77998V16.51C2.29004 18.41 3.64004 19.19 5.28004 18.25L7.63004 16.91C8.14004 16.62 8.99004 16.59 9.52004 16.86L14.77 19.49C15.3 19.75 16.15 19.73 16.66 19.44L20.99 16.96C21.54 16.64 22 15.86 22 15.22V5.48998C22 3.58998 20.65 2.80998 19.01 3.74998L16.66 5.08998C16.15 5.37998 15.3 5.40998 14.77 5.13998L9.52004 2.51998C8.99004 2.25998 8.14004 2.27998 7.63004 2.56998L3.30004 5.04998C2.74004 5.36998 2.29004 6.14998 2.29004 6.77998Z" stroke="#A3ABAC" stroke-width="1.5" stroke-linecap="round" stroke-linejoin="round"/>
<path d="M8.56006 3V16" stroke="#A3ABAC" stroke-width="1.5" stroke-linecap="round" stroke-linejoin="round"/>
<path d="M15.73 5.62012V19.0001" stroke="#A3ABAC" stroke-width="1.5" stroke-linecap="round" stroke-linejoin="round"/>
</svg>
