<svg width="64" height="64" viewBox="0 0 64 64" fill="none" xmlns="http://www.w3.org/2000/svg">
<path d="M11.7904 58.8307H0.998739C0.399202 58.8307 -0.000488281 58.431 -0.000488281 57.8314V40.2451C-0.000488281 39.6455 0.399202 39.2458 0.998739 39.2458H11.7904C12.3899 39.2458 12.7896 39.6455 12.7896 40.2451V57.8314C12.7896 58.431 12.3899 58.8307 11.7904 58.8307ZM1.99797 56.8322H10.7912V41.2443H1.99797V56.8322Z" fill="#018995"/>
<path d="M34.7739 54.5336C33.9745 54.5336 33.2751 54.3337 32.4757 54.034L23.9823 49.6374C23.4827 49.3376 23.2828 48.7381 23.5826 48.3384C23.8824 47.8388 24.4819 47.6389 24.8816 47.9387L33.375 52.3353C34.674 52.9348 36.4726 52.5351 36.9722 51.436C37.3719 50.5367 36.7724 49.9372 36.1728 49.5375L27.6794 43.9418C26.98 43.4422 26.0807 43.2423 25.0814 43.2423H11.7917C11.1922 43.2423 10.7925 42.8427 10.7925 42.2431C10.7925 41.6436 11.1922 41.2439 11.7917 41.2439H25.0814C26.3804 41.2439 27.6794 41.6436 28.7786 42.343L37.4718 47.8388C39.0706 48.9379 39.6701 50.6366 38.9707 52.2354C38.1713 53.7342 36.4726 54.5336 34.7739 54.5336Z" fill="#018995"/>
<path d="M35.6728 63.7251C34.7735 63.7251 33.9742 63.6252 33.1748 63.3254L11.4916 56.9304C10.9919 56.7305 10.6922 56.2309 10.7921 55.7313C10.9919 55.2317 11.4916 54.9319 11.9912 55.0318L33.6744 61.4269C34.8735 61.8266 36.4722 61.8266 37.8711 61.327L60.2538 51.5346C61.1531 51.1349 61.7527 50.5353 61.7527 49.8359C61.7527 48.8367 60.6535 48.0373 59.2546 48.0373H58.9548L38.3708 52.1341C37.8711 52.234 37.2716 51.9342 37.1717 51.3347C37.0718 50.8351 37.3715 50.2356 37.9711 50.1356L58.6551 46.0388H58.8549H59.4544C61.9525 46.0388 63.951 47.7375 63.951 49.8359C63.951 51.3347 62.9517 52.7336 61.253 53.3332L38.7704 63.1256C37.7712 63.6252 36.6721 63.7251 35.6728 63.7251Z" fill="#018995"/>
<path d="M58.8549 8.06852H21.8835C21.284 8.06852 20.8843 7.66883 20.8843 7.06929C20.8843 6.46976 21.284 6.07007 21.8835 6.07007H58.8549C59.4544 6.07007 59.8541 6.46976 59.8541 7.06929C59.8541 7.66883 59.4544 8.06852 58.8549 8.06852Z" fill="#018995"/>
<path d="M35.2729 38.746H21.8832C20.0846 38.746 18.4858 37.1473 18.4858 35.3487V20.3603C18.4858 19.7608 18.8855 19.3611 19.4851 19.3611C20.0846 19.3611 20.4843 19.7608 20.4843 20.3603V35.3487C20.4843 36.0481 21.1838 36.7476 21.8832 36.7476H35.2729C35.8724 36.7476 36.2721 37.1473 36.2721 37.7468C36.2721 38.3464 35.8724 38.746 35.2729 38.746Z" fill="#018995"/>
<path d="M58.7563 38.7464H51.4619C29.2407 39.047 31.1084 38.4674 33.105 37.4369C33.105 36.8374 32.3964 36.4709 51.4619 36.748H58.7563C59.4557 36.748 60.1552 36.0485 60.1552 35.3491V18.3623C60.1552 17.7627 60.5549 17.363 61.1544 17.363C61.7539 17.363 62.1536 17.7627 62.1536 18.3623V35.3491C62.1536 37.1477 60.5549 38.7464 58.7563 38.7464Z" fill="#018995"/>
<path d="M20.9832 8.17071C20.5835 8.17071 20.2838 7.97086 20.0839 7.57117C19.8841 7.07156 20.0839 6.47202 20.5835 6.17226C20.9832 5.97241 21.4828 5.97241 21.7826 5.97241C22.3821 5.97241 22.7818 6.3721 22.7818 6.97164C22.7818 7.57117 22.3821 7.97086 21.7826 7.97086C21.6827 7.97086 21.4828 7.97086 21.3829 7.97086C21.283 8.17071 21.0831 8.17071 20.9832 8.17071Z" fill="#018995"/>
<path d="M32.5756 20.558L20.7847 19.4588C20.2851 19.3589 19.7855 18.9592 19.8854 18.3597C19.9853 17.7601 20.385 17.3604 20.9846 17.4604L32.6755 18.5595C33.1751 18.6594 33.6747 19.0591 33.5748 19.6587C33.4749 20.1583 33.0752 20.558 32.5756 20.558Z" fill="#018995"/>
<path d="M48.0632 20.4589C47.5636 20.4589 47.064 20.0592 47.064 19.5596C47.064 18.9601 47.4637 18.5604 47.9633 18.4605L60.9532 17.3613C61.5528 17.1615 62.0524 16.7618 61.9524 15.9624L60.6535 9.46743C60.5535 8.66805 59.7541 8.06852 58.8548 8.06852C58.2553 8.06852 57.8556 7.66883 57.8556 7.06929C57.8556 6.46976 58.2553 6.07007 58.8548 6.07007C60.6535 6.07007 62.3521 7.36906 62.6519 9.06774L63.9509 15.5627C64.2507 17.3613 63.1515 18.8601 61.4528 19.3598C61.3529 19.3598 61.253 19.3598 61.253 19.3598H60.8533L48.0632 20.4589Z" fill="#018995"/>
<path d="M50.2617 8.0691C49.6622 8.0691 49.2625 7.66941 49.2625 7.06988C49.2625 4.47189 47.5638 2.2736 45.3655 2.2736H33.5746C31.4763 2.2736 29.6777 4.47189 29.6777 7.06988C29.6777 7.66941 29.278 8.0691 28.6784 8.0691C28.0789 8.0691 27.6792 7.66941 27.6792 7.06988C27.6792 3.37274 30.2772 0.275146 33.5746 0.275146H45.3655C48.663 0.275146 51.261 3.37274 51.261 7.06988C51.261 7.66941 50.8613 8.0691 50.2617 8.0691Z" fill="#018995"/>
<path d="M45.6667 24.2543H34.975C33.1764 24.2543 31.5776 22.6555 31.5776 20.8569V19.3581C31.5776 17.5595 33.1764 15.9607 34.975 15.9607H45.6667C47.4653 15.9607 49.0641 17.5595 49.0641 19.3581V20.8569C49.0641 22.6555 47.4653 24.2543 45.6667 24.2543ZM34.975 17.9591C34.2756 17.9591 33.5761 18.6586 33.5761 19.3581V20.8569C33.5761 21.5564 34.2756 22.2558 34.975 22.2558H45.6667C46.3662 22.2558 47.0657 21.5564 47.0657 20.8569V19.3581C47.0657 18.6586 46.3662 17.9591 45.6667 17.9591H34.975Z" fill="#018995"/>
<path d="M11.7904 13.8653C9.69202 13.8653 8.09326 12.1667 8.09326 10.0683C8.09326 7.96992 9.69202 6.27124 11.7904 6.27124C13.8888 6.27124 15.4875 7.96992 15.4875 10.0683C15.4875 10.6678 15.0878 11.0675 14.4883 11.0675C13.8888 11.0675 13.4891 10.6678 13.4891 10.0683C13.4891 9.06907 12.7896 8.26969 11.7904 8.26969C10.7912 8.26969 10.0917 9.06907 10.0917 10.0683C10.0917 11.0675 10.7912 11.8669 11.7904 11.8669C12.3899 11.8669 12.7896 12.2666 12.7896 12.8661C12.7896 13.4657 12.3899 13.8653 11.7904 13.8653Z" fill="#018995"/>
<path d="M11.7904 19.4611C9.69202 19.4611 8.09326 17.7624 8.09326 15.664C8.09326 15.0645 8.49295 14.6648 9.09249 14.6648C9.69202 14.6648 10.0917 15.0645 10.0917 15.664C10.0917 16.6632 10.7912 17.4626 11.7904 17.4626C12.6897 17.4626 13.4891 16.6632 13.4891 15.664C13.4891 14.6648 12.7896 13.8654 11.7904 13.8654C11.1909 13.8654 10.7912 13.4657 10.7912 12.8662C10.7912 12.2666 11.1909 11.8669 11.7904 11.8669C13.8888 11.8669 15.4875 13.5656 15.4875 15.664C15.4875 17.7624 13.7889 19.4611 11.7904 19.4611Z" fill="#018995"/>
<path d="M11.7917 8.36946C11.1922 8.36946 10.7925 7.96977 10.7925 7.37024V6.07125C10.7925 5.47171 11.1922 5.07202 11.7917 5.07202C12.3912 5.07202 12.7909 5.47171 12.7909 6.07125V7.37024C12.7909 7.96977 12.3912 8.36946 11.7917 8.36946Z" fill="#018995"/>
<path d="M11.7917 20.6585C11.1922 20.6585 10.7925 20.2588 10.7925 19.6593V18.3603C10.7925 17.7608 11.1922 17.3611 11.7917 17.3611C12.3912 17.3611 12.7909 17.7608 12.7909 18.3603V19.6593C12.7909 20.2588 12.3912 20.6585 11.7917 20.6585Z" fill="#018995"/>
<path d="M11.792 24.5554C5.29705 24.5554 0.101074 19.3595 0.101074 12.8645C0.101074 6.36955 5.29705 1.17358 11.792 1.17358C18.287 1.17358 23.483 6.36955 23.483 12.8645C23.483 19.3595 18.287 24.5554 11.792 24.5554ZM11.792 3.17203C6.49613 3.17203 2.09953 7.56862 2.09953 12.8645C2.09953 18.1604 6.49613 22.557 11.792 22.557C17.0879 22.557 21.4845 18.1604 21.4845 12.8645C21.4845 7.56862 17.0879 3.17203 11.792 3.17203Z" fill="#018995"/>
</svg>
