<svg width="41" height="40" viewBox="0 0 41 40" fill="none" xmlns="http://www.w3.org/2000/svg">
<path d="M19.9992 10.7026C19.2375 10.7026 18.4929 10.4767 17.8596 10.0535C17.2262 9.63033 16.7326 9.02884 16.4411 8.32511C16.1496 7.62138 16.0733 6.84702 16.222 6.09994C16.3706 5.35286 16.7374 4.66663 17.276 4.12802C17.8146 3.58941 18.5008 3.22261 19.2479 3.074C19.995 2.9254 20.7693 3.00167 21.4731 3.29316C22.1768 3.58466 22.7783 4.07829 23.2015 4.71163C23.6247 5.34497 23.8505 6.08958 23.8505 6.85129C23.8495 7.8724 23.4434 8.8514 22.7214 9.57343C21.9993 10.2955 21.0203 10.7016 19.9992 10.7026ZM19.9992 4.28376C19.4914 4.28376 18.995 4.43435 18.5728 4.71647C18.1506 4.99859 17.8215 5.39958 17.6272 5.86874C17.4328 6.33789 17.382 6.85414 17.481 7.35219C17.5801 7.85024 17.8246 8.30773 18.1837 8.6668C18.5428 9.02588 19.0003 9.27041 19.4983 9.36948C19.9964 9.46855 20.5126 9.4177 20.9818 9.22337C21.4509 9.02904 21.8519 8.69995 22.1341 8.27773C22.4162 7.8555 22.5668 7.3591 22.5668 6.85129C22.5668 6.17034 22.2963 5.51728 21.8148 5.03577C21.3332 4.55427 20.6802 4.28376 19.9992 4.28376Z" fill="#E8C900"/>
<path d="M25.1306 22.8988H20.3165C20.2091 22.8989 20.1019 22.8913 19.9955 22.8764C19.8892 22.8913 19.782 22.8989 19.6746 22.8988H14.8605C14.1795 22.8988 13.5265 22.6283 13.045 22.1468C12.5635 21.6653 12.293 21.0123 12.293 20.3313V15.8381C12.2945 14.6469 12.7684 13.505 13.6107 12.6627C14.453 11.8204 15.5949 11.3465 16.7861 11.345H23.2049C24.3961 11.3465 25.5381 11.8204 26.3804 12.6627C27.2227 13.505 27.6966 14.6469 27.6981 15.8381V20.3313C27.6981 21.0123 27.4276 21.6653 26.9461 22.1468C26.4646 22.6283 25.8115 22.8988 25.1306 22.8988ZM21.7042 21.6151H25.1306C25.4711 21.6151 25.7976 21.4798 26.0383 21.2391C26.2791 20.9983 26.4144 20.6718 26.4144 20.3313V15.8381C26.4133 14.9873 26.0749 14.1715 25.4732 13.5699C24.8716 12.9682 24.0558 12.6298 23.2049 12.6287H16.7861C15.9353 12.6298 15.1195 12.9682 14.5179 13.5699C13.9162 14.1715 13.5778 14.9873 13.5767 15.8381V20.3313C13.5767 20.6718 13.712 20.9983 13.9527 21.2391C14.1935 21.4798 14.52 21.6151 14.8605 21.6151H18.2869C18.1436 21.3143 18.0694 20.9854 18.0699 20.6522C18.0699 20.482 18.1375 20.3187 18.2579 20.1984C18.3783 20.078 18.5415 20.0104 18.7118 20.0104C18.882 20.0104 19.0453 20.078 19.1657 20.1984C19.286 20.3187 19.3537 20.482 19.3537 20.6522C19.3537 20.8513 19.4154 21.0455 19.5304 21.208C19.6453 21.3706 19.8078 21.4935 19.9955 21.5599C20.2096 21.4841 20.39 21.3351 20.5048 21.1392C20.6196 20.9434 20.6616 20.7132 20.6232 20.4894C20.5848 20.2656 20.4685 20.0626 20.2949 19.9162C20.1214 19.7698 19.9017 19.6895 19.6746 19.6894H16.1443C15.974 19.6894 15.8108 19.6218 15.6904 19.5014C15.57 19.381 15.5024 19.2178 15.5024 19.0475V16.48C15.5024 16.3098 15.57 16.1465 15.6904 16.0261C15.8108 15.9058 15.974 15.8381 16.1443 15.8381C16.3145 15.8381 16.4778 15.9058 16.5981 16.0261C16.7185 16.1465 16.7861 16.3098 16.7861 16.48V18.4057H19.6746C20.0536 18.4057 20.4264 18.5016 20.7584 18.6845C21.0903 18.8673 21.3706 19.1312 21.5732 19.4515C21.7757 19.7718 21.894 20.1381 21.9169 20.5164C21.9398 20.8947 21.8666 21.2727 21.7042 21.6151Z" fill="#E8C900"/>
<path d="M23.8475 19.6904H20.3172C20.1469 19.6904 19.9837 19.6228 19.8633 19.5024C19.7429 19.382 19.6753 19.2188 19.6753 19.0485C19.6753 18.8783 19.7429 18.715 19.8633 18.5946C19.9837 18.4743 20.1469 18.4066 20.3172 18.4066H23.2056V16.481C23.2056 16.3108 23.2733 16.1475 23.3936 16.0271C23.514 15.9067 23.6773 15.8391 23.8475 15.8391C24.0178 15.8391 24.181 15.9067 24.3014 16.0271C24.4218 16.1475 24.4894 16.3108 24.4894 16.481V19.0485C24.4894 19.2188 24.4218 19.382 24.3014 19.5024C24.181 19.6228 24.0178 19.6904 23.8475 19.6904Z" fill="#E8C900"/>
<path d="M7.42014 17.1223C6.65842 17.1223 5.91382 16.8964 5.28048 16.4732C4.64714 16.05 4.15351 15.4485 3.86201 14.7448C3.57052 14.0411 3.49425 13.2667 3.64285 12.5196C3.79145 11.7725 4.15825 11.0863 4.69686 10.5477C5.23548 10.0091 5.92171 9.64228 6.66879 9.49368C7.41586 9.34508 8.19023 9.42135 8.89396 9.71284C9.59769 10.0043 10.1992 10.498 10.6224 11.1313C11.0455 11.7646 11.2714 12.5093 11.2714 13.271C11.2702 14.292 10.8641 15.2709 10.1421 15.9929C9.42009 16.7149 8.44119 17.1211 7.42014 17.1223ZM7.42014 10.7034C6.91233 10.7034 6.41592 10.854 5.9937 11.1361C5.57147 11.4183 5.24238 11.8193 5.04805 12.2884C4.85372 12.7576 4.80288 13.2738 4.90195 13.7719C5.00101 14.2699 5.24555 14.7274 5.60462 15.0865C5.9637 15.4456 6.42119 15.6901 6.91924 15.7892C7.41729 15.8882 7.93353 15.8374 8.40268 15.643C8.87184 15.4487 9.27283 15.1196 9.55495 14.6974C9.83708 14.2752 9.98766 13.7788 9.98766 13.271C9.98766 12.59 9.71715 11.937 9.23565 11.4555C8.75414 10.9739 8.10108 10.7034 7.42014 10.7034Z" fill="#E8C900"/>
<path d="M19.9979 30.6023L14.221 30.5959C14.0508 30.5959 13.8875 30.5283 13.7671 30.4079C13.6467 30.2875 13.5791 30.1242 13.5791 29.954C13.5791 29.7838 13.6467 29.6205 13.7671 29.5001C13.8875 29.3798 14.0508 29.3121 14.221 29.3121L19.3561 29.3185C19.3561 28.8078 19.1532 28.318 18.792 27.9569C18.4309 27.5958 17.9411 27.3929 17.4304 27.3929H15.8835C15.4475 27.3946 15.024 27.2477 14.6827 26.9764C14.3414 26.7051 14.1027 26.3256 14.006 25.9005L12.9693 22.7329C12.3185 19.8649 11.7722 19.0485 9.3748 19.0485H6.51843C5.75655 19.0448 5.0185 19.3139 4.43775 19.807C3.857 20.3002 3.47188 20.9849 3.35203 21.7373C3.34041 21.8221 3.31195 21.9036 3.26835 21.9773C3.22474 22.0509 3.16685 22.115 3.09809 22.1659C3.02933 22.2169 2.95108 22.2535 2.86795 22.2738C2.78482 22.294 2.69848 22.2974 2.61401 22.2838C2.52954 22.2702 2.44864 22.2398 2.37607 22.1945C2.30351 22.1492 2.24073 22.0898 2.19144 22.0199C2.14215 21.9499 2.10734 21.8709 2.08905 21.7873C2.07076 21.7037 2.06937 21.6173 2.08496 21.5332C2.25232 20.4792 2.7913 19.5198 3.60445 18.8287C4.4176 18.1375 5.45123 17.7601 6.51843 17.7647H9.3748C12.8891 17.7647 13.5932 19.6826 14.2056 22.3927L15.2416 25.5571C15.2675 25.7095 15.3458 25.8481 15.463 25.9489C15.5802 26.0497 15.7289 26.1064 15.8835 26.1091H17.4304C18.2813 26.1102 19.097 26.4486 19.6987 27.0503C20.3003 27.6519 20.6388 28.4677 20.6398 29.3185V29.9604C20.6398 30.1307 20.5722 30.2939 20.4518 30.4143C20.3314 30.5347 20.1682 30.6023 19.9979 30.6023Z" fill="#E8C900"/>
<path d="M16.7904 35.0938H8.24123C6.88813 35.0939 5.5779 34.6191 4.53905 33.7521C3.50019 32.8851 2.79864 31.681 2.55674 30.3497L1.03548 23.262L1.03098 23.2421C0.980595 22.9646 0.991774 22.6794 1.06373 22.4067C1.13569 22.134 1.26667 21.8805 1.44742 21.664C1.62817 21.4475 1.85426 21.2733 2.10973 21.1538C2.36519 21.0343 2.64378 20.9724 2.92582 20.9724H7.58973C8.34078 20.9723 9.06808 21.2356 9.64501 21.7165C10.2219 22.1974 10.6119 22.8653 10.7471 23.6041L11.9173 28.7591C11.9395 28.9127 12.0158 29.0533 12.1326 29.1556C12.2494 29.2579 12.3988 29.3151 12.554 29.3169L14.2184 29.313H14.2229C15.0741 29.313 15.8904 29.6511 16.4923 30.253C17.0942 30.8549 17.4323 31.6712 17.4323 32.5224V34.4519C17.4323 34.6222 17.3647 34.7854 17.2443 34.9058C17.124 35.0262 16.9607 35.0938 16.7904 35.0938ZM2.29292 23.0046L3.81611 30.1006C4.00088 31.14 4.5455 32.0813 5.35456 32.7595C6.16361 33.4377 7.18552 33.8096 8.24123 33.81H16.1486V32.5224C16.1486 32.0117 15.9457 31.5219 15.5846 31.1608C15.2234 30.7997 14.7336 30.5968 14.2229 30.5968L12.554 30.6006C12.1029 30.6008 11.6659 30.4426 11.3195 30.1535C10.9731 29.8645 10.7392 29.4629 10.6586 29.019L9.48841 23.8641C9.4118 23.4155 9.17939 23.0082 8.83208 22.7141C8.48477 22.42 8.04484 22.2578 7.58973 22.2562H2.92582C2.83251 22.2562 2.74034 22.2765 2.6557 22.3158C2.57107 22.3551 2.49601 22.4123 2.43577 22.4836C2.37552 22.5548 2.33153 22.6384 2.30686 22.7283C2.28219 22.8183 2.27743 22.9126 2.29292 23.0046Z" fill="#E8C900"/>
<path d="M32.6345 17.1223C31.8728 17.1223 31.1282 16.8964 30.4948 16.4732C29.8615 16.05 29.3679 15.4485 29.0764 14.7448C28.7849 14.0411 28.7086 13.2667 28.8572 12.5196C29.0058 11.7725 29.3726 11.0863 29.9112 10.5477C30.4498 10.0091 31.1361 9.64228 31.8831 9.49368C32.6302 9.34508 33.4046 9.42135 34.1083 9.71284C34.812 10.0043 35.4135 10.498 35.8367 11.1313C36.2599 11.7646 36.4858 12.5093 36.4858 13.271C36.4848 14.2921 36.0787 15.2711 35.3566 15.9931C34.6346 16.7151 33.6556 17.1212 32.6345 17.1223ZM32.6345 10.7034C32.1267 10.7034 31.6303 10.854 31.2081 11.1361C30.7858 11.4183 30.4567 11.8193 30.2624 12.2884C30.0681 12.7576 30.0172 13.2738 30.1163 13.7719C30.2154 14.2699 30.4599 14.7274 30.819 15.0865C31.1781 15.4456 31.6355 15.6901 32.1336 15.7892C32.6316 15.8882 33.1479 15.8374 33.617 15.643C34.0862 15.4487 34.4872 15.1196 34.7693 14.6974C35.0514 14.2752 35.202 13.7788 35.202 13.271C35.202 12.59 34.9315 11.937 34.45 11.4555C33.9685 10.9739 33.3154 10.7034 32.6345 10.7034Z" fill="#E8C900"/>
<path d="M19.9998 30.6023C19.8296 30.6023 19.6663 30.5347 19.5459 30.4143C19.4255 30.2939 19.3579 30.1307 19.3579 29.9604V29.3185C19.3589 28.4677 19.6974 27.6519 20.299 27.0503C20.9007 26.4486 21.7164 26.1102 22.5673 26.1091H24.1142C24.2595 26.1094 24.4005 26.0604 24.5143 25.9702C24.6281 25.88 24.7079 25.7538 24.7407 25.6123L25.8088 22.3342C26.4045 19.6826 27.1086 17.7647 30.6229 17.7647H33.4793C34.5465 17.7601 35.5801 18.1375 36.3933 18.8287C37.2064 19.5198 37.7454 20.4792 37.9128 21.5332C37.9284 21.6173 37.927 21.7037 37.9087 21.7873C37.8904 21.8709 37.8556 21.9499 37.8063 22.0199C37.757 22.0898 37.6942 22.1492 37.6216 22.1945C37.5491 22.2398 37.4682 22.2702 37.3837 22.2838C37.2992 22.2974 37.2129 22.294 37.1298 22.2738C37.0466 22.2535 36.9684 22.2169 36.8996 22.1659C36.8309 22.115 36.773 22.0509 36.7294 21.9773C36.6858 21.9036 36.6573 21.8221 36.6457 21.7373C36.5258 20.9849 36.1407 20.3002 35.56 19.807C34.9792 19.3139 34.2412 19.0448 33.4793 19.0485H30.6229C28.2255 19.0485 27.6793 19.8649 27.0451 22.6744L25.9763 25.9557C25.8728 26.3698 25.6328 26.7369 25.2949 26.9977C24.957 27.2585 24.541 27.3977 24.1142 27.3929H22.5673C22.0566 27.3929 21.5668 27.5958 21.2057 27.9569C20.8446 28.318 20.6417 28.8078 20.6417 29.3185L25.7767 29.3128C25.947 29.3128 26.1102 29.3804 26.2306 29.5008C26.351 29.6212 26.4186 29.7844 26.4186 29.9547C26.4186 30.1249 26.351 30.2882 26.2306 30.4085C26.1102 30.5289 25.947 30.5965 25.7767 30.5965L19.9998 30.6023Z" fill="#E8C900"/>
<path d="M31.759 35.0938H23.2098C23.0395 35.0938 22.8762 35.0262 22.7559 34.9058C22.6355 34.7854 22.5679 34.6222 22.5679 34.4519V32.5224C22.5679 31.6712 22.906 30.8549 23.5079 30.253C24.1098 29.6512 24.9261 29.313 25.7773 29.313H25.7831L27.4462 29.3169C27.5963 29.3166 27.7415 29.2637 27.8567 29.1674C27.9718 29.0712 28.0496 28.9376 28.0765 28.7899L29.2569 23.5804C29.3952 22.8458 29.7862 22.1828 30.3623 21.7064C30.9383 21.23 31.663 20.9703 32.4105 20.9724H37.0744C37.3564 20.9724 37.635 21.0343 37.8905 21.1538C38.1459 21.2733 38.372 21.4475 38.5528 21.664C38.7335 21.8805 38.8645 22.1341 38.9365 22.4067C39.0084 22.6794 39.0196 22.9646 38.9692 23.2421L38.9647 23.262L37.439 30.3702C37.1946 31.6978 36.4923 32.8975 35.4544 33.7607C34.4165 34.6238 33.1088 35.0955 31.759 35.0938ZM23.8516 33.81H31.759C32.8113 33.8102 33.8304 33.4409 34.6383 32.7667C35.4463 32.0924 35.992 31.1559 36.1802 30.1205L37.7073 23.0046C37.7228 22.9126 37.718 22.8183 37.6933 22.7283C37.6687 22.6384 37.6247 22.5548 37.5644 22.4836C37.5042 22.4124 37.4291 22.3551 37.3445 22.3158C37.2599 22.2766 37.1677 22.2562 37.0744 22.2562H32.4105C31.9595 22.2561 31.5228 22.4143 31.1765 22.7032C30.8303 22.9922 30.5964 23.3934 30.5156 23.8371L29.3352 29.046C29.2509 29.4847 29.0159 29.8801 28.671 30.1639C28.3261 30.4478 27.8929 30.6022 27.4462 30.6006L25.7773 30.5968C25.2666 30.5968 24.7768 30.7997 24.4156 31.1608C24.0545 31.5219 23.8516 32.0117 23.8516 32.5224V33.81Z" fill="#E8C900"/>
<path d="M7.80078 34.4526H9.08454V37.662H7.80078V34.4526Z" fill="#E8C900"/>
<path d="M14.8599 34.4526H16.1436V37.662H14.8599V34.4526Z" fill="#E8C900"/>
<path d="M23.8501 34.4526H25.1339V37.662H23.8501V34.4526Z" fill="#E8C900"/>
<path d="M30.9146 34.4526H32.1983V37.662H30.9146V34.4526Z" fill="#E8C900"/>
</svg>
