<svg width="41" height="40" viewBox="0 0 41 40" fill="none" xmlns="http://www.w3.org/2000/svg">
<path d="M20.3507 38.9994C17.9622 38.9994 16.019 37.0562 16.019 34.6677C16.019 32.2791 17.9622 30.3359 20.3507 30.3359C22.7393 30.3359 24.6825 32.2791 24.6825 34.6677C24.6825 37.0562 22.7393 38.9994 20.3507 38.9994ZM20.3507 31.7935C18.766 31.7935 17.4766 33.0829 17.4766 34.6676C17.4766 36.2523 18.7661 37.5417 20.3507 37.5417C21.9355 37.5417 23.2249 36.2523 23.2249 34.6676C23.2249 33.0829 21.9354 31.7935 20.3507 31.7935Z" fill="#E8C900"/>
<path d="M24.8438 36.0114H23.8967C23.6818 36.0114 23.478 35.9165 23.3395 35.7524C23.2009 35.588 23.1421 35.3709 23.1784 35.1592C23.2089 34.9812 23.224 34.8205 23.224 34.6677C23.224 33.802 22.8385 32.9904 22.1661 32.4412C21.9277 32.2461 21.8373 31.9223 21.9408 31.632C22.0445 31.3417 22.3191 31.148 22.6273 31.148H23.4311C23.8004 31.148 24.1385 30.9459 24.3134 30.6207C24.7935 29.7282 24.77 28.6326 24.252 27.7615L23.3705 26.2786C23.0006 25.6562 23.0423 24.8805 23.4763 24.3016C23.8015 23.8679 24.2987 23.6089 24.8404 23.5908C25.3808 23.5756 25.8951 23.798 26.2486 24.2089L28.2699 26.5576C29.2842 27.7357 29.6246 29.3287 29.1807 30.8186L28.4305 33.3373C27.9615 34.9117 26.4867 36.0114 24.8438 36.0114ZM24.6801 34.5538H24.8437C25.8467 34.5538 26.7472 33.8824 27.0337 32.9211L27.7839 30.4024C28.0854 29.3903 27.8541 28.3086 27.1653 27.5083L25.1438 25.1594C25.0561 25.0573 24.949 25.0476 24.8891 25.0474C24.8316 25.0495 24.723 25.0687 24.6426 25.1759C24.5641 25.2805 24.5565 25.4209 24.6233 25.5337L25.5049 27.0164C26.2832 28.3251 26.3182 29.9706 25.5971 31.3112C25.2777 31.9051 24.7367 32.3313 24.1076 32.5111C24.4616 33.1268 24.6611 33.826 24.6801 34.5538Z" fill="#E8C900"/>
<path d="M16.8043 36.0096H15.8572C14.2143 36.0096 12.7394 34.91 12.2704 33.3354L11.52 30.8167C11.0762 29.3268 11.4168 27.734 12.431 26.5556L14.452 24.2067C14.8058 23.7958 15.3163 23.5737 15.861 23.5889C16.4026 23.6072 16.8994 23.8663 17.2244 24.2996C17.6585 24.8782 17.7003 25.6546 17.3302 26.2766L16.1106 28.3282C15.801 28.8484 15.787 29.5027 16.0739 30.0361C16.4423 30.7207 17.1543 31.1462 17.9317 31.1462H18.0735C18.3818 31.1462 18.6565 31.34 18.7602 31.6301C18.8636 31.9204 18.7732 32.2443 18.5348 32.4393C17.8624 32.9885 17.477 33.8001 17.477 34.6658C17.477 34.8177 17.4919 34.9783 17.5227 35.1574C17.559 35.369 17.5003 35.5861 17.3617 35.7505C17.223 35.9147 17.0192 36.0096 16.8043 36.0096ZM12.9169 30.4005L13.6672 32.9192C13.9536 33.8805 14.8542 34.5519 15.8572 34.5519H16.0207C16.0411 33.7707 16.2693 33.0225 16.6736 32.3753C15.8803 32.0766 15.206 31.4991 14.7904 30.7267C14.2623 29.7453 14.2882 28.5409 14.8578 27.5833L16.0775 25.5316C16.1443 25.4192 16.137 25.279 16.0585 25.1744C15.9778 25.0669 15.8694 25.0476 15.812 25.0455C15.7577 25.0453 15.6448 25.0556 15.557 25.1576L13.5359 27.5064C12.8469 28.3069 12.6155 29.3887 12.9169 30.4005Z" fill="#E8C900"/>
<path d="M12.8918 33.8575H3.33574C2.88997 33.8575 2.54367 33.7246 2.30655 33.4629C1.93289 33.0501 1.98609 32.5168 2.03304 32.0461C2.04934 31.8814 2.06842 31.7014 2.06842 31.5127V8.4855C2.06842 7.19276 3.12007 6.14111 4.41306 6.14111H12.8917C13.2943 6.14111 13.6205 6.46723 13.6205 6.86986C13.6205 7.27239 13.2943 7.59868 12.8917 7.59868H4.41306C3.92388 7.59868 3.52599 7.99658 3.52599 8.4855V31.5128C3.52599 31.7631 3.50344 31.9902 3.48352 32.1906C3.47684 32.2554 3.4695 32.3301 3.46401 32.3999H12.8917C13.2943 32.3999 13.6205 32.7261 13.6205 33.1286C13.6205 33.5313 13.2943 33.8575 12.8918 33.8575Z" fill="#E8C900"/>
<path d="M36.2892 33.8575H27.8103C27.4077 33.8575 27.0815 33.5313 27.0815 33.1286C27.0815 32.7261 27.4077 32.3999 27.8103 32.3999H36.2892C36.7781 32.3999 37.176 32.0021 37.176 31.5128V8.4855C37.176 7.99658 36.7781 7.59868 36.2892 7.59868H27.8103C27.4077 7.59868 27.0815 7.27248 27.0815 6.86986C27.0815 6.46723 27.4077 6.14111 27.8103 6.14111H36.2892C37.5819 6.14111 38.6336 7.19276 38.6336 8.4855V31.5128C38.6336 32.8058 37.5818 33.8575 36.2892 33.8575Z" fill="#E8C900"/>
<path d="M20.3507 9.6635C17.9622 9.6635 16.019 7.7203 16.019 5.33175C16.019 2.9432 17.9622 1 20.3507 1C22.7393 1 24.6825 2.9432 24.6825 5.33167C24.6825 7.72022 22.7393 9.6635 20.3507 9.6635ZM20.3507 2.45757C18.766 2.45757 17.4766 3.74701 17.4766 5.33167C17.4766 6.91649 18.7661 8.20585 20.3507 8.20585C21.9355 8.20585 23.2249 6.91641 23.2249 5.33167C23.2249 3.74701 21.9354 2.45757 20.3507 2.45757Z" fill="#E8C900"/>
<path d="M15.7999 16.4084C15.2808 16.4084 14.7926 16.1849 14.4523 15.7897L12.4309 13.4409C11.4166 12.2625 11.0762 10.6695 11.5201 9.17955L12.2704 6.66104C12.7393 5.08652 14.2144 3.98682 15.8572 3.98682H16.8043C17.0192 3.98682 17.2231 4.08173 17.3616 4.24589C17.5001 4.4103 17.5589 4.6274 17.5226 4.83901C17.4918 5.01812 17.4768 5.17873 17.4768 5.33056C17.4768 6.19626 17.8623 7.00793 18.5347 7.55706C18.7731 7.75204 18.8635 8.07588 18.76 8.36619C18.6563 8.65642 18.3816 8.85014 18.0734 8.85014H17.2699C16.9005 8.85014 16.5622 9.05229 16.3871 9.37782C15.9071 10.27 15.9307 11.3656 16.4485 12.2367L17.3303 13.7194C17.6999 14.3413 17.6586 15.1172 17.2244 15.6964C16.8989 16.1303 16.402 16.3891 15.8603 16.4074C15.8404 16.4081 15.8201 16.4084 15.7999 16.4084ZM15.8573 5.44439C14.8543 5.44439 13.9537 6.11579 13.6674 7.07709L12.917 9.5956C12.6157 10.6076 12.8468 11.6894 13.5357 12.49L15.557 14.8389C15.6448 14.9407 15.7579 14.9568 15.8118 14.9506C15.8694 14.9487 15.9778 14.9295 16.0583 14.8223C16.1371 14.7174 16.1447 14.577 16.0778 14.4645L15.196 12.9818C14.4181 11.6734 14.3827 10.0279 15.1039 8.68725C15.4234 8.09344 15.9644 7.66684 16.5933 7.48731C16.2393 6.87164 16.0398 6.17228 16.0208 5.44447L15.8573 5.44439Z" fill="#E8C900"/>
<path d="M24.9013 16.4084C24.8811 16.4084 24.861 16.4082 24.8408 16.4075C24.2992 16.3895 23.802 16.1305 23.4767 15.6969C23.0425 15.1176 23.001 14.3415 23.3704 13.7198L24.5902 11.6678C24.8996 11.1476 24.9139 10.4933 24.627 9.96014C24.2588 9.27548 23.5471 8.85014 22.7695 8.85014H22.6273C22.3191 8.85014 22.0444 8.65634 21.9407 8.36619C21.8373 8.07588 21.9277 7.75196 22.1661 7.55706C22.8385 7.00785 23.2239 6.19618 23.2239 5.33056C23.2239 5.1778 23.2089 5.01719 23.1783 4.83901C23.1421 4.6274 23.2009 4.4103 23.3395 4.24589C23.4779 4.08173 23.6818 3.98682 23.8967 3.98682H24.8438C26.4866 3.98682 27.9618 5.08643 28.4306 6.66104L29.1808 9.17955C29.6246 10.6697 29.2842 12.2627 28.27 13.4409L26.2484 15.7897C25.9086 16.1849 25.4203 16.4084 24.9013 16.4084ZM24.0272 7.62107C24.8208 7.91974 25.495 8.49716 25.9107 9.26982C26.4386 10.251 26.4125 11.4553 25.8431 12.4128L24.6235 14.4644C24.5566 14.5769 24.5642 14.7176 24.6428 14.8224C24.7231 14.9294 24.8317 14.9486 24.8895 14.9505C24.9438 14.9564 25.0567 14.9403 25.1438 14.839L27.1656 12.4898C27.8543 11.6895 28.0853 10.6076 27.7841 9.59543L27.0339 7.07692C26.7476 6.11562 25.847 5.44422 24.844 5.44422H24.6803C24.6598 6.22565 24.4315 6.9739 24.0272 7.62107Z" fill="#E8C900"/>
<path d="M24.1481 19.5301H16.473C16.0703 19.5301 15.7441 19.2039 15.7441 18.8013V15.438C15.7441 15.2221 15.8397 15.0174 16.0053 14.8791C16.0246 14.8629 16.0421 14.8445 16.0568 14.8248C16.136 14.7191 16.1436 14.5787 16.0768 14.4663L15.8734 14.1244C15.7394 13.8993 15.7368 13.6194 15.8662 13.3916C15.9959 13.1639 16.2375 13.0232 16.4997 13.0232H24.1481C24.5506 13.0232 24.8768 13.3494 24.8768 13.752V13.8403C24.8768 13.9716 24.8414 14.1003 24.7743 14.2131L24.6234 14.4667C24.5603 14.5727 24.5636 14.7041 24.6307 14.8069L24.6732 14.8494C24.8039 14.9851 24.8768 15.1661 24.8768 15.3545V18.8015C24.8769 19.2038 24.5507 19.5301 24.1481 19.5301ZM17.2018 18.0725H23.4193V15.6174C23.1913 15.2757 23.0927 14.875 23.1261 14.4808H17.5743C17.6105 14.9066 17.4924 15.34 17.2238 15.6983C17.2018 15.7271 17.2018 18.0725 17.2018 18.0725Z" fill="#E8C900"/>
</svg>
