<svg width="18" height="17" viewBox="0 0 18 17" fill="none" xmlns="http://www.w3.org/2000/svg">
<path fill-rule="evenodd" clip-rule="evenodd" d="M7.16665 13.8179H0.788046C0.368947 13.8179 0.0288086 13.4959 0.0288086 13.0991C0.0288086 12.7024 0.368947 12.3804 0.788046 12.3804H7.16665C7.58575 12.3804 7.92589 12.7024 7.92589 13.0991C7.92589 13.4959 7.58575 13.8179 7.16665 13.8179Z" fill="#0D4D63"/>
<path fill-rule="evenodd" clip-rule="evenodd" d="M16.3898 4.5293H10.0122C9.59307 4.5293 9.25293 4.2073 9.25293 3.81055C9.25293 3.4138 9.59307 3.0918 10.0122 3.0918H16.3898C16.8089 3.0918 17.149 3.4138 17.149 3.81055C17.149 4.2073 16.8089 4.5293 16.3898 4.5293Z" fill="#0D4D63"/>
<mask id="mask0_504_2983" style="mask-type:luminance" maskUnits="userSpaceOnUse" x="0" y="0" width="7" height="7">
<path fill-rule="evenodd" clip-rule="evenodd" d="M0 0.791992H6.30248V6.72561H0V0.791992Z" fill="white"/>
</mask>
<g mask="url(#mask0_504_2983)">
<path fill-rule="evenodd" clip-rule="evenodd" d="M3.15158 2.229C2.25163 2.229 1.51871 2.91517 1.51871 3.75946C1.51871 4.6028 2.25163 5.288 3.15158 5.288C4.05254 5.288 4.78444 4.6028 4.78444 3.75946C4.78444 2.91517 4.05254 2.229 3.15158 2.229ZM3.15134 6.7255C1.41421 6.7255 0 5.39534 0 3.75946C0 2.12359 1.41421 0.791504 3.15134 0.791504C4.88949 0.791504 6.30268 2.12359 6.30268 3.75946C6.30268 5.39534 4.88949 6.7255 3.15134 6.7255Z" fill="#0D4D63"/>
</g>
<path fill-rule="evenodd" clip-rule="evenodd" d="M14.5656 11.5327C13.6647 11.5327 12.9318 12.2189 12.9318 13.0622C12.9318 13.9065 13.6647 14.5917 14.5656 14.5917C15.4656 14.5917 16.1975 13.9065 16.1975 13.0622C16.1975 12.2189 15.4656 11.5327 14.5656 11.5327ZM14.5654 16.0292C12.8273 16.0292 11.4131 14.6981 11.4131 13.0622C11.4131 11.4263 12.8273 10.0952 14.5654 10.0952C16.3026 10.0952 17.7158 11.4263 17.7158 13.0622C17.7158 14.6981 16.3026 16.0292 14.5654 16.0292Z" fill="#0D4D63"/>
</svg>
