<svg width="23" height="25" viewBox="0 0 23 25" fill="none" xmlns="http://www.w3.org/2000/svg">
<path d="M9.70112 10.2078H5.30368C3.75164 10.2078 3.40119 10.9838 3.20927 11.9434L2.5 15.3228H12.5131L11.8039 11.9434C11.5953 10.9838 11.2532 10.2078 9.70112 10.2078Z" stroke="#7A8586" stroke-width="1.25164" stroke-linecap="round" stroke-linejoin="round"/>
<path d="M13.748 20.8386C13.8147 21.5729 13.2306 22.2071 12.4796 22.2071H11.3031C10.6272 22.2071 10.5354 21.915 10.4102 21.5646L10.2851 21.1891C10.1098 20.6801 9.99302 20.3296 9.09184 20.3296H5.88764C4.98646 20.3296 4.85294 20.7218 4.6944 21.1891L4.56924 21.5646C4.45242 21.9234 4.36063 22.2071 3.6764 22.2071H2.49985C1.74886 22.2071 1.15643 21.5729 1.23153 20.8386L1.58199 17.0253C1.67377 16.0824 1.849 15.3147 3.49282 15.3147H11.4783C13.1221 15.3147 13.2974 16.0824 13.3891 17.0253L13.748 20.8386Z" stroke="#7A8586" stroke-width="1.25164" stroke-linecap="round" stroke-linejoin="round"/>
<path d="M2.49154 13.446H1.86572" stroke="#7A8586" stroke-width="1.25164" stroke-linecap="round" stroke-linejoin="round"/>
<path d="M13.1307 13.446H12.5049" stroke="#7A8586" stroke-width="1.25164" stroke-linecap="round" stroke-linejoin="round"/>
<path d="M3.74316 17.8269H5.62063" stroke="#7A8586" stroke-width="1.25164" stroke-linecap="round" stroke-linejoin="round"/>
<path d="M9.37549 17.8269H11.253" stroke="#7A8586" stroke-width="1.25164" stroke-linecap="round" stroke-linejoin="round"/>
<path d="M18.1606 5.76427C18.7247 5.76427 19.1837 5.30527 19.1837 4.74113V3.69404C19.1837 3.1299 18.7247 2.6709 18.1606 2.6709H16.4565C16.2543 2.6709 16.0903 2.83487 16.0903 3.03709V7.7589C16.0903 7.96112 16.2543 8.12509 16.4565 8.12509C16.6587 8.12509 16.8227 7.96112 16.8227 7.7589V5.76427H18.1606ZM18.4513 3.69404V4.74113C18.4513 4.90154 18.321 5.0319 18.1606 5.0319H16.8227V3.40332H18.1606C18.321 3.40332 18.4513 3.53363 18.4513 3.69404Z" fill="#7A8586" stroke="#7A8586" stroke-width="0.5"/>
<path d="M17.6367 23.9764C17.8389 23.9764 18.0029 23.8124 18.0029 23.6102V10.2565H20.9425C21.7987 10.2565 22.4951 9.55989 22.4951 8.70377V2.09233C22.4951 1.23621 21.7987 0.539551 20.9425 0.539551H14.3309C13.4748 0.539551 12.7783 1.23621 12.7783 2.09233V8.70377C12.7783 9.55989 13.4748 10.2565 14.3309 10.2565H17.2705V23.6102C17.2705 23.8124 17.4345 23.9764 17.6367 23.9764ZM13.5107 8.70377V2.09233C13.5107 1.63994 13.8787 1.27197 14.3309 1.27197H20.9425C21.3947 1.27197 21.7627 1.63994 21.7627 2.09233V8.70377C21.7627 9.15616 21.3947 9.52413 20.9425 9.52413H14.3309C13.8787 9.52417 13.5107 9.15616 13.5107 8.70377Z" fill="#7A8586" stroke="#7A8586" stroke-width="0.5"/>
</svg>
