<svg width="21" height="20" viewBox="0 0 21 20" fill="none" xmlns="http://www.w3.org/2000/svg">
<path d="M7.79982 19H13.2001C17.7003 19 19.5004 17.2 19.5004 12.7V7.3C19.5004 2.8 17.7003 1 13.2001 1H7.79982C3.2996 1 1.49951 2.8 1.49951 7.3V12.7C1.49951 17.2 3.2996 19 7.79982 19Z" stroke="#018995" stroke-width="1.27065" stroke-linecap="round" stroke-linejoin="round"/>
<path d="M10.5024 13.1506C10.9161 13.1506 11.3258 13.0691 11.708 12.9108C12.0902 12.7525 12.4374 12.5205 12.7299 12.228C13.0225 11.9355 13.2545 11.5882 13.4128 11.206C13.5711 10.8239 13.6526 10.4142 13.6526 10.0006C13.6526 9.58692 13.5711 9.17731 13.4128 8.79513C13.2545 8.41296 13.0225 8.0657 12.7299 7.7732C12.4374 7.4807 12.0902 7.24867 11.708 7.09037C11.3258 6.93206 10.9161 6.85059 10.5024 6.85059C9.66698 6.85059 8.86572 7.18246 8.27495 7.7732C7.68419 8.36394 7.35229 9.16515 7.35229 10.0006C7.35229 10.836 7.68419 11.6372 8.27495 12.228C8.86572 12.8187 9.66698 13.1506 10.5024 13.1506Z" stroke="#018995" stroke-width="1.27065" stroke-linecap="round" stroke-linejoin="round"/>
<path d="M15.5752 5.50024H15.5886" stroke="#018995" stroke-width="1.5" stroke-linecap="round" stroke-linejoin="round"/>
</svg>
