<svg width="40" height="37" viewBox="0 0 40 37" fill="none" xmlns="http://www.w3.org/2000/svg">
<path d="M33.389 23.3914C33.0763 22.7269 32.609 22.1469 32.0262 21.7001C31.4434 21.2532 30.762 20.9525 30.0391 20.823C30.0873 20.7712 30.1347 20.7183 30.1802 20.6627C30.8819 19.7317 31.2381 18.5857 31.1878 17.421C31.1879 16.8572 31.0464 16.3023 30.7763 15.8074C30.5062 15.3125 30.1161 14.8934 29.6418 14.5885C29.1675 14.2836 28.6243 14.1027 28.0619 14.0624C27.4995 14.0222 26.936 14.1238 26.4232 14.358C25.8739 13.9701 25.2455 13.7088 24.5832 13.5926C24.631 13.5409 24.6781 13.4884 24.7235 13.4335C25.4257 12.5027 25.7824 11.3567 25.7327 10.1918C25.7333 9.60386 25.5798 9.02602 25.2877 8.51582C24.9955 8.00563 24.5748 7.58087 24.0674 7.28384C23.56 6.98682 22.9836 6.8279 22.3957 6.8229C21.8078 6.81791 21.2288 6.96701 20.7165 7.25536C20.2302 6.95705 19.6918 6.7536 19.1297 6.65577C19.1775 6.60443 19.2245 6.55192 19.27 6.49706C19.9713 5.56588 20.3273 4.41999 20.2772 3.25534C20.2474 2.3819 19.8794 1.55419 19.251 0.946838C18.6226 0.339488 17.7828 0 16.9089 0C16.0349 0 15.1951 0.339488 14.5667 0.946838C13.9383 1.55419 13.5704 2.3819 13.5406 3.25534C13.4904 4.41999 13.8464 5.56588 14.5477 6.49706C14.5932 6.55192 14.6402 6.60443 14.688 6.65577C14.1258 6.75347 13.5872 6.95707 13.1009 7.25575C12.5886 6.96717 12.0096 6.81787 11.4216 6.82273C10.8336 6.8276 10.2572 6.98645 9.74975 7.28347C9.24229 7.58049 8.82153 8.00531 8.52938 8.51559C8.23724 9.02587 8.08391 9.6038 8.08468 10.1918C8.03452 11.3564 8.39053 12.5023 9.09184 13.4335C9.1373 13.4884 9.18433 13.5409 9.23214 13.5922C8.56976 13.7085 7.94139 13.9702 7.39222 14.3584C6.87916 14.1234 6.31529 14.0212 5.75243 14.0611C5.18956 14.101 4.64574 14.2817 4.17094 14.5866C3.69614 14.8915 3.30558 15.3109 3.03516 15.8062C2.76473 16.3014 2.62311 16.8567 2.62331 17.421C2.57301 18.5856 2.92904 19.7316 3.63047 20.6627C3.67593 20.718 3.72295 20.7705 3.77115 20.8222C2.71593 21.0073 1.7596 21.5581 1.07 22.378C0.380395 23.1979 0.00156927 24.2345 1.43352e-07 25.3058V28.0098C-5.13445e-05 28.0802 0.0137673 28.1499 0.0406663 28.215C0.0675654 28.28 0.107018 28.3391 0.156768 28.3889C0.206519 28.4387 0.265593 28.4782 0.330614 28.5051C0.395635 28.5321 0.465329 28.5459 0.535713 28.5459H25.8126C25.4994 29.8755 25.5952 31.2686 26.0873 32.5428C26.5794 33.817 27.4449 34.9129 28.5704 35.6868C29.696 36.4607 31.029 36.8766 32.3949 36.88C33.7609 36.8834 35.0959 36.4741 36.2253 35.7057C37.3546 34.9374 38.2256 33.8458 38.724 32.5741C39.2224 31.3023 39.325 29.9097 39.0184 28.5786C38.7118 27.2475 38.0103 26.0401 37.0058 25.1145C36.0013 24.1889 34.7407 23.5883 33.389 23.3914ZM30.1175 17.421C30.1175 19.7104 28.9269 20.752 27.821 20.752C26.7151 20.752 25.5242 19.7092 25.5242 17.421C25.5244 17.0265 25.6263 16.6388 25.82 16.2952C26.0137 15.9515 26.2927 15.6636 26.6301 15.4592C26.6379 15.4549 26.6461 15.4506 26.654 15.4455C27.0025 15.2393 27.3994 15.1289 27.8043 15.1257C28.2093 15.1225 28.6079 15.2265 28.9596 15.4271C29.3114 15.6277 29.6038 15.9179 29.8071 16.2681C30.0105 16.6183 30.1176 17.016 30.1175 17.421ZM25.4599 20.6627C25.5054 20.718 25.5524 20.7705 25.6006 20.8222C24.9188 20.9419 24.2732 21.2151 23.7127 21.6212C23.1521 22.0272 22.6913 22.5556 22.3651 23.1661C22.0386 22.5555 21.5774 22.0272 21.0165 21.6211C20.4557 21.215 19.8098 20.9418 19.1277 20.8222C19.1759 20.7705 19.223 20.718 19.2684 20.6627C19.9699 19.7316 20.3259 18.5856 20.2756 17.421C20.2758 16.9736 20.1865 16.5307 20.013 16.1184C19.8395 15.706 19.5853 15.3325 19.2653 15.0199C19.7744 14.7425 20.3448 14.5969 20.9246 14.5962H23.8038C24.3834 14.5969 24.9537 14.7425 25.4626 15.0199C25.143 15.3327 24.8891 15.7063 24.7159 16.1186C24.5427 16.5309 24.4536 16.9737 24.4539 17.421C24.4031 18.5855 24.7587 19.7315 25.4599 20.6627ZM13.9944 7.98898C14.4544 7.77179 14.9568 7.65936 15.4655 7.65979H18.3471C18.856 7.65925 19.3587 7.7714 19.819 7.9882C19.2878 8.59936 18.9955 9.38202 18.9961 10.1918C18.9459 11.3565 19.302 12.5025 20.0036 13.4335C20.0487 13.4884 20.0957 13.5409 20.1439 13.5926C19.4816 13.7088 18.8533 13.9701 18.304 14.358C17.8655 14.1575 17.389 14.0537 16.9069 14.0537C16.4248 14.0537 15.9483 14.1575 15.5098 14.358C14.9606 13.9698 14.3323 13.7081 13.6699 13.5918C13.7181 13.5405 13.7651 13.488 13.8102 13.4331C14.5115 12.5019 14.8675 11.356 14.8173 10.1914C14.8177 9.38202 14.5254 8.5998 13.9944 7.98898ZM15.725 15.4537L15.732 15.4494C16.0846 15.239 16.4872 15.1272 16.8977 15.1257C17.3082 15.1242 17.7116 15.233 18.0657 15.4408C18.0771 15.4482 18.0892 15.4545 18.101 15.4611C18.4374 15.6657 18.7156 15.9534 18.9087 16.2966C19.1019 16.6397 19.2035 17.0268 19.2038 17.4206C19.2038 19.71 18.0136 20.7517 16.9073 20.7517C15.801 20.7517 14.6108 19.7088 14.6108 17.4206C14.6111 17.0245 14.7139 16.6352 14.9091 16.2906C15.1043 15.9459 15.3854 15.6576 15.725 15.4537ZM24.6608 10.1918C24.6608 12.4812 23.4703 13.5229 22.364 13.5229C21.2577 13.5229 20.0675 12.4804 20.0675 10.1918C20.0675 9.83477 20.1508 9.48267 20.3107 9.16347C20.4707 8.84428 20.7029 8.56678 20.9888 8.35305C21.0127 8.33863 21.0353 8.32238 21.0566 8.30445C21.401 8.06489 21.8045 7.92431 22.2232 7.898C22.6419 7.87169 23.0598 7.96065 23.4314 8.15521C23.8031 8.34978 24.1143 8.6425 24.3313 9.00156C24.5482 9.36061 24.6626 9.77228 24.662 10.1918H24.6608ZM16.9061 0.959654C17.5148 0.960379 18.0984 1.20245 18.5289 1.6328C18.9594 2.06315 19.2017 2.64664 19.2026 3.25534C19.2026 5.54476 18.0124 6.58641 16.9061 6.58641C15.7998 6.58641 14.6096 5.54398 14.6096 3.25534C14.6103 2.64654 14.8524 2.06287 15.283 1.63246C15.7136 1.20204 16.2973 0.960069 16.9061 0.959654ZM11.4494 7.8961C11.9229 7.89574 12.3847 8.0427 12.7709 8.3166C12.7874 8.32989 12.8047 8.34219 12.8226 8.35344C13.1092 8.56741 13.3418 8.84536 13.502 9.16514C13.6622 9.48491 13.7454 9.83768 13.7451 10.1953C13.7451 12.4847 12.555 13.5264 11.4494 13.5264C10.3439 13.5264 9.15376 12.484 9.15376 10.1953C9.15324 9.5858 9.39476 9.00102 9.82524 8.56951C10.2557 8.138 10.8399 7.89508 11.4494 7.89414V7.8961ZM10.0089 14.5974H12.89C13.4695 14.598 14.0395 14.7438 14.5481 15.0214C14.2285 15.3342 13.9746 15.7077 13.8013 16.12C13.628 16.5322 13.5388 16.975 13.539 17.4222C13.4887 18.5868 13.8447 19.7328 14.5462 20.6639C14.5916 20.7191 14.6386 20.7716 14.6865 20.823C14.0045 20.9426 13.3586 21.2157 12.7978 21.6218C12.237 22.0279 11.7759 22.5562 11.4494 23.1669C11.123 22.5562 10.6619 22.0279 10.1011 21.6218C9.5403 21.2157 8.89444 20.9426 8.21244 20.823C8.26025 20.7716 8.30728 20.7191 8.35274 20.6639C9.05416 19.7328 9.41019 18.5868 9.35989 17.4222C9.36008 16.975 9.27091 16.5322 9.09762 16.12C8.92433 15.7077 8.67041 15.3342 8.35078 15.0214C8.85933 14.7436 9.42935 14.5974 10.0089 14.5962V14.5974ZM5.99278 15.1257C6.60134 15.1263 7.18479 15.3683 7.61511 15.7986C8.04543 16.229 8.28745 16.8124 8.28807 17.421C8.28807 19.7104 7.09791 20.752 5.9916 20.752C4.8853 20.752 3.69513 19.7092 3.69513 17.421C3.69606 16.8121 3.93851 16.2285 4.36927 15.7982C4.80003 15.3678 5.3839 15.126 5.99278 15.1257ZM10.9137 27.4741H1.07182V25.3058C1.07286 24.3831 1.43987 23.4984 2.09234 22.846C2.74481 22.1935 3.62946 21.8265 4.55219 21.8254H7.43336C8.3561 21.8265 9.24074 22.1935 9.89321 22.846C10.5457 23.4984 10.9127 24.3831 10.9137 25.3058V27.4741ZM21.8294 27.4741H11.9856V25.3058C11.9865 24.3831 12.3534 23.4985 13.0058 22.846C13.6582 22.1935 14.5428 21.8265 15.4655 21.8254H18.3471C19.2699 21.8266 20.1545 22.1936 20.8071 22.846C21.4597 23.4984 21.8269 24.383 21.8283 25.3058L21.8294 27.4741ZM22.9012 27.4741V25.3058C22.9022 24.3831 23.2691 23.4985 23.9215 22.846C24.5739 22.1935 25.4585 21.8265 26.3812 21.8254H29.2628C29.8246 21.8284 30.3775 21.9663 30.8748 22.2277C31.3722 22.489 31.7994 22.8661 32.1205 23.3272C30.837 23.3839 29.596 23.8036 28.5416 24.5375C27.4872 25.2715 26.6626 26.2895 26.1637 27.4733L22.9012 27.4741ZM32.4093 35.8049C31.2807 35.8046 30.1775 35.4697 29.2393 34.8424C28.3011 34.2151 27.57 33.3238 27.1383 32.281C26.7067 31.2382 26.594 30.0908 26.8145 28.984C27.0349 27.8771 27.5786 26.8605 28.3768 26.0627C29.1751 25.2648 30.1919 24.7216 31.2989 24.5017C32.4058 24.2818 33.5532 24.395 34.5957 24.8272C35.6383 25.2593 36.5293 25.9909 37.1561 26.9294C37.7829 27.8679 38.1174 28.9712 38.1171 30.0998C38.1152 31.6128 37.5131 33.0631 36.443 34.1327C35.3729 35.2023 33.9222 35.8037 32.4093 35.8049ZM36.6374 29.0977C36.6024 28.9901 36.5343 28.8964 36.4428 28.8299C36.3513 28.7633 36.241 28.7275 36.1279 28.7274L33.6766 28.7329L32.9223 26.3992C32.8873 26.2916 32.8192 26.1979 32.7276 26.1314C32.6361 26.0649 32.5259 26.0291 32.4128 26.0291C32.2997 26.0291 32.1895 26.0649 32.098 26.1314C32.0065 26.1979 31.9383 26.2916 31.9033 26.3992L31.149 28.7329L28.6953 28.7282C28.582 28.7281 28.4716 28.764 28.3799 28.8307C28.2883 28.8973 28.2201 28.9913 28.1853 29.0992C28.1504 29.207 28.1507 29.3231 28.186 29.4308C28.2213 29.5385 28.2899 29.6322 28.3818 29.6985L30.3687 31.1356L29.6037 33.4661C29.5686 33.5738 29.5684 33.6899 29.6033 33.7977C29.6382 33.9055 29.7064 33.9994 29.798 34.0661C29.8897 34.1327 30 34.1686 30.1133 34.1686C30.2266 34.1686 30.337 34.1327 30.4287 34.0661L32.4093 32.6212L34.3915 34.0661C34.4831 34.1327 34.5935 34.1686 34.7068 34.1686C34.8201 34.1686 34.9305 34.1327 35.0221 34.0661C35.1137 33.9994 35.1819 33.9055 35.2168 33.7977C35.2517 33.6899 35.2515 33.5738 35.2164 33.4661L34.453 31.1348L36.4399 29.6977C36.532 29.6315 36.6008 29.5377 36.6363 29.4299C36.6718 29.3221 36.6721 29.2058 36.6374 29.0977ZM33.5093 30.4952C33.4171 30.5617 33.3485 30.6558 33.3133 30.7638C33.2781 30.8719 33.2781 30.9883 33.3134 31.0964L33.6817 32.2219L32.7267 31.5251C32.635 31.4581 32.5244 31.4221 32.4108 31.4221C32.2973 31.4221 32.1867 31.4581 32.095 31.5251L31.1392 32.2219L31.5075 31.0964C31.5428 30.9883 31.5428 30.8719 31.5076 30.7638C31.4724 30.6558 31.4038 30.5617 31.3116 30.4952L30.3542 29.8031L31.5346 29.8059C31.6478 29.8057 31.7581 29.7698 31.8496 29.7031C31.9411 29.6364 32.0092 29.5425 32.044 29.4348L32.4085 28.3069L32.7729 29.4348C32.8078 29.5425 32.8759 29.6364 32.9674 29.703C33.0589 29.7697 33.1692 29.8057 33.2824 29.8059L34.4628 29.8031L33.5093 30.4952Z" fill="#E8C900"/>
</svg>
