<svg width="24" height="24" viewBox="0 0 24 24" fill="none" xmlns="http://www.w3.org/2000/svg">
<path d="M15 16.7695C15.2969 16.8086 15.6484 16.8672 16.0547 16.9453C16.4609 17.0234 16.8906 17.1289 17.3438 17.2617C17.7969 17.3945 18.2383 17.5508 18.668 17.7305C19.0977 17.9102 19.4883 18.1211 19.8398 18.3633C20.1914 18.6055 20.4688 18.8828 20.6719 19.1953C20.875 19.5078 20.9844 19.8594 21 20.25C21 20.6406 20.8945 20.9883 20.6836 21.293C20.4727 21.5977 20.207 21.8633 19.8867 22.0898C19.5664 22.3164 19.2227 22.5156 18.8555 22.6875C18.4883 22.8594 18.1523 22.9922 17.8477 23.0859C17.3477 23.2578 16.8242 23.4023 16.2773 23.5195C15.7305 23.6367 15.168 23.7305 14.5898 23.8008C14.0117 23.8711 13.4453 23.9219 12.8906 23.9531C12.3359 23.9844 11.7891 24 11.25 24C10.7188 24 10.1719 23.9844 9.60938 23.9531C9.04688 23.9219 8.48047 23.8711 7.91016 23.8008C7.33984 23.7305 6.78125 23.6367 6.23438 23.5195C5.6875 23.4023 5.16016 23.2578 4.65234 23.0859C4.34766 22.9844 4.01172 22.8516 3.64453 22.6875C3.27734 22.5234 2.9375 22.3281 2.625 22.1016C2.3125 21.875 2.04688 21.6055 1.82812 21.293C1.60938 20.9805 1.5 20.6328 1.5 20.25C1.5 19.8594 1.60547 19.5117 1.81641 19.207C2.02734 18.9023 2.30859 18.625 2.66016 18.375C3.01172 18.125 3.40234 17.9102 3.83203 17.7305C4.26172 17.5508 4.70312 17.3984 5.15625 17.2734C5.60938 17.1484 6.03516 17.043 6.43359 16.957C6.83203 16.8711 7.1875 16.8086 7.5 16.7695V14.8711C7.27344 14.793 7.07031 14.6836 6.89062 14.543C6.71094 14.4023 6.55078 14.2383 6.41016 14.0508C6.26953 13.8633 6.16797 13.6602 6.10547 13.4414C6.04297 13.2227 6.00781 12.9922 6 12.75V6.75C6 6.4375 6.05859 6.14453 6.17578 5.87109C6.29297 5.59766 6.45312 5.35938 6.65625 5.15625C6.85938 4.95312 7.09766 4.79297 7.37109 4.67578C7.64453 4.55859 7.9375 4.5 8.25 4.5H8.64844C8.38281 4.03125 8.25 3.53125 8.25 3C8.25 2.58594 8.32812 2.19922 8.48438 1.83984C8.64062 1.48047 8.85547 1.16016 9.12891 0.878906C9.40234 0.597656 9.71875 0.382812 10.0781 0.234375C10.4375 0.0859375 10.8281 0.0078125 11.25 0C11.6641 0 12.0508 0.078125 12.4102 0.234375C12.7695 0.390625 13.0898 0.605469 13.3711 0.878906C13.6523 1.15234 13.8672 1.46875 14.0156 1.82812C14.1641 2.1875 14.2422 2.57812 14.25 3C14.25 3.53125 14.1172 4.03125 13.8516 4.5H14.25C14.5625 4.5 14.8555 4.55859 15.1289 4.67578C15.4023 4.79297 15.6406 4.95312 15.8438 5.15625C16.0469 5.35938 16.207 5.59766 16.3242 5.87109C16.4414 6.14453 16.5 6.4375 16.5 6.75V12.75C16.5 12.9844 16.4648 13.2109 16.3945 13.4297C16.3242 13.6484 16.2227 13.8555 16.0898 14.0508C15.957 14.2461 15.8008 14.4102 15.6211 14.543C15.4414 14.6758 15.2344 14.7852 15 14.8711V16.7695ZM9.75 3C9.75 3.21094 9.78906 3.40625 9.86719 3.58594C9.94531 3.76562 10.0508 3.92188 10.1836 4.05469C10.3164 4.1875 10.4766 4.29688 10.6641 4.38281C10.8516 4.46875 11.0469 4.50781 11.25 4.5C11.4609 4.5 11.6562 4.46094 11.8359 4.38281C12.0156 4.30469 12.1719 4.19922 12.3047 4.06641C12.4375 3.93359 12.5469 3.77344 12.6328 3.58594C12.7188 3.39844 12.7578 3.20312 12.75 3C12.75 2.78906 12.7109 2.59375 12.6328 2.41406C12.5547 2.23438 12.4492 2.07812 12.3164 1.94531C12.1836 1.8125 12.0234 1.70312 11.8359 1.61719C11.6484 1.53125 11.4531 1.49219 11.25 1.5C11.0391 1.5 10.8438 1.53906 10.6641 1.61719C10.4844 1.69531 10.3281 1.80078 10.1953 1.93359C10.0625 2.06641 9.95312 2.22656 9.86719 2.41406C9.78125 2.60156 9.74219 2.79688 9.75 3ZM11.25 22.5C11.5859 22.5 11.9766 22.4922 12.4219 22.4766C12.8672 22.4609 13.332 22.4258 13.8164 22.3711C14.3008 22.3164 14.8008 22.25 15.3164 22.1719C15.832 22.0938 16.3203 21.9883 16.7812 21.8555C17.2422 21.7227 17.6719 21.5781 18.0703 21.4219C18.4688 21.2656 18.8047 21.0664 19.0781 20.8242C19.1562 20.7617 19.2461 20.6797 19.3477 20.5781C19.4492 20.4766 19.5 20.3672 19.5 20.25C19.5 20.1406 19.4492 20.0312 19.3477 19.9219C19.2461 19.8125 19.1289 19.7109 18.9961 19.6172C18.8633 19.5234 18.7227 19.4375 18.5742 19.3594C18.4258 19.2812 18.3164 19.2227 18.2461 19.1836C17.7461 18.9492 17.2188 18.7617 16.6641 18.6211C16.1094 18.4805 15.5547 18.3672 15 18.2812V20.25C15 20.3438 14.9336 20.4258 14.8008 20.4961C14.668 20.5664 14.5156 20.625 14.3438 20.6719C14.1719 20.7188 14.0039 20.7578 13.8398 20.7891C13.6758 20.8203 13.5625 20.8398 13.5 20.8477V13.5H13.9688C14.1406 13.5 14.3047 13.4844 14.4609 13.4531C14.6172 13.4219 14.7461 13.3516 14.8477 13.2422C14.9492 13.1328 15 12.9688 15 12.75V6.75C15 6.54688 14.9258 6.37109 14.7773 6.22266C14.6289 6.07422 14.4531 6 14.25 6H8.25C8.04688 6 7.87109 6.07422 7.72266 6.22266C7.57422 6.37109 7.5 6.54688 7.5 6.75V12.75C7.5 12.9688 7.55078 13.1289 7.65234 13.2305C7.75391 13.332 7.87891 13.4062 8.02734 13.4531C8.17578 13.5 8.33984 13.5195 8.51953 13.5117C8.69922 13.5039 8.85938 13.5 9 13.5V20.8477C8.9375 20.8398 8.82422 20.8203 8.66016 20.7891C8.49609 20.7578 8.32812 20.7188 8.15625 20.6719C7.98438 20.625 7.83203 20.5664 7.69922 20.4961C7.56641 20.4258 7.5 20.3438 7.5 20.25V18.2812C6.95312 18.3672 6.40234 18.4805 5.84766 18.6211C5.29297 18.7617 4.76172 18.9492 4.25391 19.1836L3.92578 19.3477C3.78516 19.418 3.64844 19.5039 3.51562 19.6055C3.38281 19.707 3.26172 19.8125 3.15234 19.9219C3.04297 20.0312 2.99219 20.1406 3 20.25C3 20.3594 3.05078 20.4648 3.15234 20.5664C3.25391 20.668 3.34375 20.7539 3.42188 20.8242C3.6875 21.0508 4.01953 21.2461 4.41797 21.4102C4.81641 21.5742 5.25 21.7227 5.71875 21.8555C6.1875 21.9883 6.67578 22.0898 7.18359 22.1602C7.69141 22.2305 8.1875 22.2969 8.67188 22.3594C9.15625 22.4219 9.625 22.457 10.0781 22.4648C10.5312 22.4727 10.9219 22.4844 11.25 22.5ZM10.5 13.5H12V20.9883C11.875 20.9961 11.75 21 11.625 21C11.5 21 11.375 21 11.25 21H10.875C10.75 21 10.625 20.9961 10.5 20.9883V13.5Z" fill="#A3ABAC"/>
</svg>
