<svg width="26" height="42" viewBox="0 0 26 42" fill="none" xmlns="http://www.w3.org/2000/svg">
<path d="M22.9728 14.3844C22.2682 14.2908 21.5518 14.4567 20.9585 14.8509L21.7119 5.30591C21.7998 4.1972 21.4191 3.10024 20.6637 2.2824C19.9083 1.46456 18.8465 1 17.732 1H8.37429C7.25974 1 6.1979 1.46456 5.44253 2.2824C4.68715 3.09829 4.30848 4.19525 4.39433 5.30396L5.14776 14.849C4.55438 14.4547 3.83803 14.2888 3.13342 14.3825C1.91543 14.566 1.01169 15.6044 1 16.8341C1.01562 17.7788 1.60507 18.6162 2.48737 18.9519C2.54593 19.3169 2.60058 19.6897 2.65133 20.0645C2.9812 22.4029 3.35599 25.0536 5.54012 25.3777H5.54208C5.5694 25.3816 5.59673 25.3835 5.62405 25.3835H11.0017V28.5124C11.0017 28.6627 11.0603 28.8052 11.1657 28.9106C11.2711 29.016 11.4135 29.0746 11.5619 29.0746H12.493V30.7981H10.1624C7.91767 30.8059 5.98333 32.3772 5.51097 34.5711L5.01128 36.931C4.00996 37.1594 3.33068 38.0905 3.41853 39.1152C3.50441 40.138 4.33396 40.9402 5.35872 40.9968C6.38542 41.0534 7.29501 40.3449 7.49408 39.3377C7.69122 38.3286 7.11736 37.3292 6.14727 36.9915L6.60987 34.8015H6.60792C6.96903 33.1268 8.44662 31.9283 10.1604 31.9205H12.4929V36.9584C11.5072 37.2394 10.8807 38.2017 11.0212 39.2167C11.1637 40.2297 12.0303 40.9851 13.0551 40.9851C14.0779 40.9851 14.9445 40.2298 15.087 39.2167C15.2276 38.2017 14.601 37.2394 13.6153 36.9584V31.9205H15.9419C17.6557 31.9283 19.1333 33.1268 19.4944 34.8015L19.957 36.9915H19.9551C18.9947 37.3273 18.4267 38.3208 18.6239 39.3202C18.821 40.3196 19.7247 41.0203 20.7417 40.9637C21.7586 40.9091 22.5804 40.1127 22.6663 39.0996C22.7541 38.0847 22.0826 37.1594 21.0911 36.9311L20.5914 34.5712C20.1191 32.3773 18.1847 30.8059 15.94 30.7982H13.6173V29.0746H14.5445C14.6928 29.0746 14.8353 29.0161 14.9407 28.9107C15.0461 28.8053 15.1046 28.6628 15.1046 28.5125V25.3855H20.4823C20.5096 25.3855 20.5369 25.3836 20.5643 25.3797C22.7485 25.0557 23.1232 22.405 23.4531 20.0665C23.5058 19.6937 23.5585 19.317 23.617 18.9539H23.619C24.5012 18.6182 25.0907 17.7788 25.1063 16.8361C25.0946 15.6064 24.1889 14.5679 22.9728 14.3844ZM6.41067 38.9236C6.41067 39.2984 6.18425 39.638 5.83683 39.7825C5.48939 39.925 5.09119 39.8469 4.82381 39.5814C4.55835 39.314 4.47832 38.9159 4.62277 38.5684C4.76721 38.221 5.10489 37.9946 5.48163 37.9946C5.99496 37.9946 6.41067 38.4103 6.41067 38.9236ZM20.6243 37.9945C21.001 37.9945 21.3387 38.2209 21.4832 38.5683C21.6276 38.9158 21.5476 39.314 21.2821 39.5814C21.0147 39.8468 20.6165 39.9249 20.2691 39.7824C19.9217 39.638 19.6953 39.2983 19.6953 38.9235C19.6953 38.4102 20.1109 37.9945 20.6243 37.9945ZM6.26826 3.04383C6.80892 2.45435 7.57214 2.11861 8.37434 2.1225H17.7335H17.7315C18.5318 2.1225 19.295 2.45628 19.8396 3.04383C20.3822 3.63136 20.6536 4.41992 20.5911 5.21632L19.3321 21.2063C17.9931 20.7028 16.5722 20.4588 15.1434 20.488C13.7556 20.5154 12.3502 20.5154 10.9643 20.488H10.9624C9.53356 20.4588 8.1126 20.7008 6.77359 21.2044L5.51462 5.21437C5.44826 4.41797 5.72173 3.62941 6.26826 3.04383ZM13.9824 38.9219C13.9824 39.2967 13.756 39.6363 13.4106 39.7808C13.0631 39.9252 12.663 39.8452 12.3975 39.5797C12.1301 39.3143 12.052 38.9161 12.1945 38.5687C12.339 38.2212 12.6767 37.9948 13.0534 37.9948C13.5667 37.9948 13.9825 38.4106 13.9825 38.924L13.9824 38.9219ZM13.9824 27.9503H12.1242V25.3855H13.9824V27.9503ZM22.9084 18.0405C22.7268 18.1107 22.5961 18.2727 22.5629 18.464C22.4809 18.9325 22.4126 19.4205 22.3423 19.9084C21.9929 22.3952 21.6669 24.0484 20.4373 24.2631H5.66897C4.43929 24.0484 4.11719 22.3971 3.76586 19.9084C3.69755 19.4205 3.62728 18.9325 3.5453 18.464H3.54334C3.51016 18.2727 3.37939 18.1107 3.19785 18.0405C2.2512 17.6657 2.12627 17.1953 2.12238 16.8264C2.13214 16.1569 2.62791 15.5927 3.29155 15.4971C3.93764 15.4034 4.58564 15.7001 5.27076 16.3911L5.7197 22.069H5.71775C5.73336 22.2525 5.83681 22.4184 5.99687 22.5102C6.15692 22.6039 6.35016 22.6117 6.51804 22.5336C7.90388 21.8895 9.41858 21.5732 10.9469 21.6103C12.3484 21.6377 13.7694 21.6377 15.1689 21.6103H15.1669C16.6953 21.5752 18.2099 21.8894 19.5958 22.5336C19.67 22.5668 19.752 22.5843 19.834 22.5843C20.1267 22.5824 20.3707 22.3579 20.3942 22.0651L20.8372 16.3912C21.5204 15.7021 22.1685 15.4054 22.8165 15.4991L22.8145 15.4972C23.4781 15.5928 23.9739 16.1569 23.9837 16.8264C23.9798 17.1953 23.855 17.6657 22.9084 18.0405Z" fill="#E8C900" stroke="#E8C900" stroke-width="0.5"/>
</svg>
