<svg width="22" height="29" viewBox="0 0 22 29" fill="none" xmlns="http://www.w3.org/2000/svg">
<path d="M3.5717 7.00548L7.401 4.08712C7.55809 3.9666 7.77254 3.97408 7.92132 4.09128L10.193 5.82265L11.9178 6.04376C12.8287 6.16096 13.5735 6.28729 14.2284 6.59734C14.9092 6.91984 15.4677 7.42438 15.9648 8.28468L18.7851 13.1713L18.0503 13.5952L15.2292 8.71029C14.8277 8.01542 14.3905 7.61395 13.8652 7.36542C13.3141 7.10441 12.6408 6.99221 11.8105 6.88499L11.5412 6.85091L11.744 7.00551C12.5311 7.60563 13.1587 8.12513 13.6042 8.77015C14.0647 9.43676 14.314 10.2065 14.314 11.2746V21.4294C14.314 21.6904 14.2783 21.9431 14.211 22.1842L19.2555 19.2709C19.6819 19.0257 19.9695 18.6267 20.0883 18.1829C20.2072 17.7382 20.1582 17.2494 19.9121 16.823L19.4009 15.9387L20.1349 15.5147L20.6469 16.4008C21.011 17.0308 21.0841 17.7507 20.9096 18.4023C20.735 19.054 20.3103 19.6408 19.6802 20.0049L13.5626 23.5382C13.4787 23.5864 13.3906 23.6313 13.3016 23.6703C13.2318 23.7011 13.1628 23.7285 13.0947 23.7509C12.6367 24.0693 12.0814 24.2571 11.4855 24.2571H3.82771C3.04887 24.2571 2.34153 23.9396 1.82953 23.4276C1.31752 22.9156 1 22.2083 1 21.4294V11.2746C1 10.2057 1.24853 9.43604 1.70983 8.76951C2.15451 8.12534 2.78373 7.6056 3.5717 7.00548ZM18.9455 15.1463L18.5075 14.3882L19.2422 13.9643L19.6803 14.7232L18.9455 15.1463ZM7.65868 8.40945C8.18816 8.40945 8.66942 8.62555 9.01851 8.97382L9.02101 8.97631C9.36927 9.32541 9.58455 9.80667 9.58455 10.3353C9.58455 10.8648 9.36844 11.346 9.02018 11.6951L9.01768 11.6976C8.66859 12.0459 8.18733 12.2612 7.65868 12.2612C7.12755 12.2612 6.64546 12.0451 6.29719 11.6968C5.94809 11.3477 5.73282 10.8665 5.73282 10.3353C5.73282 9.80584 5.94892 9.32458 6.29719 8.97549L6.29968 8.97299C6.64878 8.62473 7.12921 8.40945 7.65868 8.40945ZM8.41922 9.57479C8.22555 9.38112 7.95624 9.26059 7.65868 9.26059C7.36029 9.26059 7.0918 9.38028 6.89897 9.57396C6.70447 9.76846 6.58394 10.0378 6.58394 10.3353C6.58394 10.6321 6.70447 10.9014 6.89897 11.095C7.09264 11.2887 7.36195 11.4092 7.65868 11.4092C7.95624 11.4092 8.22557 11.2895 8.41839 11.0959C8.61289 10.9014 8.73342 10.6321 8.73342 10.3345C8.73342 10.0369 8.61373 9.76845 8.41922 9.57479ZM7.23311 14.3342C7.23311 14.0989 7.42345 13.9086 7.65868 13.9086C7.89392 13.9086 8.08425 14.099 8.08425 14.3342V14.5212C8.44499 14.6027 8.76749 14.7855 9.02017 15.0382C9.36844 15.3865 9.58455 15.8686 9.58455 16.3997C9.58455 16.6349 9.3942 16.8253 9.15897 16.8253C8.92374 16.8253 8.7334 16.6349 8.7334 16.3997C8.7334 16.103 8.61288 15.8336 8.4192 15.64C8.32361 15.5444 8.21057 15.4679 8.08506 15.4131V17.5218C8.4458 17.6033 8.7683 17.7861 9.02098 18.0388C9.36925 18.3888 9.58535 18.87 9.58535 19.4012C9.58535 19.919 9.37922 20.3911 9.04424 20.7377L9.02096 20.7635C8.76828 21.0162 8.44578 21.199 8.08505 21.2805V21.4675C8.08505 21.7027 7.8947 21.8931 7.65947 21.8931C7.42425 21.8931 7.2339 21.7027 7.2339 21.4675V21.2805C6.87317 21.199 6.55067 21.0162 6.29798 20.7635C5.94889 20.4144 5.73361 19.9331 5.73361 19.402C5.73361 19.1667 5.92395 18.9764 6.15918 18.9764C6.39442 18.9764 6.58475 19.1668 6.58475 19.402C6.58475 19.6987 6.70528 19.968 6.89978 20.1617C6.99537 20.2573 7.10841 20.3337 7.23392 20.3886V18.2799C6.87402 18.1984 6.55235 18.0155 6.29966 17.7628L6.29717 17.7604C5.9489 17.4113 5.73363 16.9308 5.73363 16.4013C5.73363 15.8702 5.94973 15.3881 6.298 15.0399L6.32377 15.0166C6.5723 14.7764 6.88565 14.6027 7.23475 14.5229V14.335L7.23311 14.3342ZM8.08425 18.4137V20.3878C8.20976 20.3338 8.32364 20.2565 8.41839 20.1609L8.43668 20.1434C8.62037 19.9506 8.73258 19.6888 8.73258 19.4003C8.73258 19.1028 8.61205 18.8334 8.41921 18.639C8.32362 18.5442 8.20976 18.4677 8.08425 18.4137ZM7.23311 17.388V15.4131C7.11508 15.4638 7.00702 15.5353 6.91559 15.6226L6.89814 15.6409C6.70447 15.8345 6.58394 16.1038 6.58394 16.4006C6.58394 16.699 6.70363 16.9675 6.89731 17.1603C6.99289 17.2559 7.10677 17.334 7.23311 17.388ZM7.65868 4.95918L4.08707 7.68136C3.35976 8.23577 2.78541 8.70788 2.40889 9.25231C2.04815 9.77513 1.85281 10.3944 1.85281 11.2754V21.4302C1.85281 21.9747 2.07475 22.4684 2.433 22.8266C2.79124 23.1849 3.28497 23.4068 3.8294 23.4068H11.4872C11.916 23.4068 12.3134 23.2697 12.6375 23.0378L12.6691 23.0145L12.6716 23.0128C12.7464 22.9563 12.8179 22.8948 12.8835 22.8283C13.2418 22.4701 13.4637 21.9755 13.4637 21.4311V11.2763C13.4637 10.396 13.2684 9.77596 12.9077 9.25398C12.5311 8.70871 11.9568 8.2366 11.2303 7.68302L7.65954 4.96085L7.65868 4.95918Z" fill="#018995" stroke="#018995" stroke-width="0.3"/>
</svg>
