<svg width="24" height="25" viewBox="0 0 24 25" fill="none" xmlns="http://www.w3.org/2000/svg">
<path d="M7.25 7.25708H16.75V5.25708C16.75 3.25708 16 2.25708 13.75 2.25708H10.25C8 2.25708 7.25 3.25708 7.25 5.25708V7.25708Z" stroke="#7A8586" stroke-width="1.5" stroke-miterlimit="10" stroke-linecap="round" stroke-linejoin="round"/>
<path d="M16 15.2571V19.2571C16 21.2571 15 22.2571 13 22.2571H11C9 22.2571 8 21.2571 8 19.2571V15.2571H16Z" stroke="#7A8586" stroke-width="1.5" stroke-miterlimit="10" stroke-linecap="round" stroke-linejoin="round"/>
<path d="M21 10.2571V15.2571C21 17.2571 20 18.2571 18 18.2571H16V15.2571H8V18.2571H6C4 18.2571 3 17.2571 3 15.2571V10.2571C3 8.25708 4 7.25708 6 7.25708H18C20 7.25708 21 8.25708 21 10.2571Z" stroke="#7A8586" stroke-width="1.5" stroke-miterlimit="10" stroke-linecap="round" stroke-linejoin="round"/>
<path d="M17 15.2571H15.79H7" stroke="#7A8586" stroke-width="1.5" stroke-miterlimit="10" stroke-linecap="round" stroke-linejoin="round"/>
<path d="M7 11.2571H10" stroke="#7A8586" stroke-width="1.5" stroke-miterlimit="10" stroke-linecap="round" stroke-linejoin="round"/>
</svg>
