<svg width="41" height="42" viewBox="0 0 41 42" fill="none" xmlns="http://www.w3.org/2000/svg">
<path d="M29.9728 14.3844C29.2682 14.2908 28.5518 14.4567 27.9585 14.8509L28.7119 5.30591C28.7998 4.1972 28.4191 3.10024 27.6637 2.2824C26.9083 1.46456 25.8465 1 24.732 1H15.3743C14.2597 1 13.1979 1.46456 12.4425 2.2824C11.6871 3.09829 11.3085 4.19525 11.3943 5.30396L12.1478 14.849C11.5544 14.4547 10.838 14.2888 10.1334 14.3825C8.91543 14.566 8.01169 15.6044 8 16.8341C8.01562 17.7788 8.60507 18.6162 9.48737 18.9519C9.54593 19.3169 9.60058 19.6897 9.65133 20.0645C9.9812 22.4029 10.356 25.0536 12.5401 25.3777H12.5421C12.5694 25.3816 12.5967 25.3835 12.6241 25.3835H18.0017V28.5124C18.0017 28.6627 18.0603 28.8052 18.1657 28.9106C18.2711 29.016 18.4135 29.0746 18.5619 29.0746H19.493V30.7981H17.1624C14.9177 30.8059 12.9833 32.3772 12.511 34.5711L12.0113 36.931C11.01 37.1594 10.3307 38.0905 10.4185 39.1152C10.5044 40.138 11.334 40.9402 12.3587 40.9968C13.3854 41.0534 14.295 40.3449 14.4941 39.3377C14.6912 38.3286 14.1174 37.3292 13.1473 36.9915L13.6099 34.8015H13.6079C13.969 33.1268 15.4466 31.9283 17.1604 31.9205H19.4929V36.9584C18.5072 37.2394 17.8807 38.2017 18.0212 39.2167C18.1637 40.2297 19.0303 40.9851 20.0551 40.9851C21.0779 40.9851 21.9445 40.2298 22.087 39.2167C22.2276 38.2017 21.601 37.2394 20.6153 36.9584V31.9205H22.9419C24.6557 31.9283 26.1333 33.1268 26.4944 34.8015L26.957 36.9915H26.9551C25.9947 37.3273 25.4267 38.3208 25.6239 39.3202C25.821 40.3196 26.7247 41.0203 27.7417 40.9637C28.7586 40.9091 29.5804 40.1127 29.6663 39.0996C29.7541 38.0847 29.0826 37.1594 28.0911 36.9311L27.5914 34.5712C27.1191 32.3773 25.1847 30.8059 22.94 30.7982H20.6173V29.0746H21.5445C21.6928 29.0746 21.8353 29.0161 21.9407 28.9107C22.0461 28.8053 22.1046 28.6628 22.1046 28.5125V25.3855H27.4823C27.5096 25.3855 27.5369 25.3836 27.5643 25.3797C29.7485 25.0557 30.1232 22.405 30.4531 20.0665C30.5058 19.6937 30.5585 19.317 30.617 18.9539H30.619C31.5012 18.6182 32.0907 17.7788 32.1063 16.8361C32.0946 15.6064 31.1889 14.5679 29.9728 14.3844ZM13.4107 38.9236C13.4107 39.2984 13.1843 39.638 12.8368 39.7825C12.4894 39.925 12.0912 39.8469 11.8238 39.5814C11.5584 39.314 11.4783 38.9159 11.6228 38.5684C11.7672 38.221 12.1049 37.9946 12.4816 37.9946C12.995 37.9946 13.4107 38.4103 13.4107 38.9236ZM27.6243 37.9945C28.001 37.9945 28.3387 38.2209 28.4832 38.5683C28.6276 38.9158 28.5476 39.314 28.2821 39.5814C28.0147 39.8468 27.6165 39.9249 27.2691 39.7824C26.9217 39.638 26.6953 39.2983 26.6953 38.9235C26.6953 38.4102 27.1109 37.9945 27.6243 37.9945ZM13.2683 3.04383C13.8089 2.45435 14.5721 2.11861 15.3743 2.1225H24.7335H24.7315C25.5318 2.1225 26.295 2.45628 26.8396 3.04383C27.3822 3.63136 27.6536 4.41992 27.5911 5.21632L26.3321 21.2063C24.9931 20.7028 23.5722 20.4588 22.1434 20.488C20.7556 20.5154 19.3502 20.5154 17.9643 20.488H17.9624C16.5336 20.4588 15.1126 20.7008 13.7736 21.2044L12.5146 5.21437C12.4483 4.41797 12.7217 3.62941 13.2683 3.04383ZM20.9824 38.9219C20.9824 39.2967 20.756 39.6363 20.4106 39.7808C20.0631 39.9252 19.663 39.8452 19.3975 39.5797C19.1301 39.3143 19.052 38.9161 19.1945 38.5687C19.339 38.2212 19.6767 37.9948 20.0534 37.9948C20.5667 37.9948 20.9825 38.4106 20.9825 38.924L20.9824 38.9219ZM20.9824 27.9503H19.1242V25.3855H20.9824V27.9503ZM29.9084 18.0405C29.7268 18.1107 29.5961 18.2727 29.5629 18.464C29.4809 18.9325 29.4126 19.4205 29.3423 19.9084C28.9929 22.3952 28.6669 24.0484 27.4373 24.2631H12.669C11.4393 24.0484 11.1172 22.3971 10.7659 19.9084C10.6975 19.4205 10.6273 18.9325 10.5453 18.464H10.5433C10.5102 18.2727 10.3794 18.1107 10.1979 18.0405C9.2512 17.6657 9.12627 17.1953 9.12238 16.8264C9.13214 16.1569 9.62791 15.5927 10.2915 15.4971C10.9376 15.4034 11.5856 15.7001 12.2708 16.3911L12.7197 22.069H12.7177C12.7334 22.2525 12.8368 22.4184 12.9969 22.5102C13.1569 22.6039 13.3502 22.6117 13.518 22.5336C14.9039 21.8895 16.4186 21.5732 17.9469 21.6103C19.3484 21.6377 20.7694 21.6377 22.1689 21.6103H22.1669C23.6953 21.5752 25.2099 21.8894 26.5958 22.5336C26.67 22.5668 26.752 22.5843 26.834 22.5843C27.1267 22.5824 27.3707 22.3579 27.3942 22.0651L27.8372 16.3912C28.5204 15.7021 29.1685 15.4054 29.8165 15.4991L29.8145 15.4972C30.4781 15.5928 30.9739 16.1569 30.9837 16.8264C30.9798 17.1953 30.855 17.6657 29.9084 18.0405Z" fill="#E8C900" stroke="#E8C900" stroke-width="0.5"/>
</svg>
