<svg width="41" height="40" viewBox="0 0 41 40" fill="none" xmlns="http://www.w3.org/2000/svg">
<path d="M28.6459 19.755H12.0201C11.7082 19.755 11.4556 19.5022 11.4556 19.1904V10.8776C11.4556 5.98248 15.438 2 20.3332 2C25.2282 2 29.2105 5.98248 29.2105 10.8776V19.1904C29.2105 19.5023 28.9577 19.755 28.6459 19.755ZM12.5846 18.6258H28.0814V10.8776C28.0814 6.60504 24.6056 3.12904 20.3331 3.12904C16.0605 3.12904 12.5845 6.60504 12.5845 10.8776V18.6258H12.5846Z" fill="#E8C900" stroke="#E8C900" stroke-width="0.2"/>
<path d="M28.9143 23.6744H11.7523C10.3604 23.6744 9.22803 22.542 9.22803 21.1502C9.22803 19.7585 10.3604 18.626 11.7523 18.626H28.9144C30.3063 18.626 31.4386 19.7585 31.4386 21.1502C31.4386 22.542 30.3062 23.6744 28.9143 23.6744ZM11.7523 19.7551C10.9831 19.7551 10.3571 20.3809 10.3571 21.1501C10.3571 21.9193 10.9831 22.5452 11.7523 22.5452H28.9144C29.6836 22.5452 30.3095 21.9193 30.3095 21.1501C30.3095 20.3809 29.6836 19.7551 28.9144 19.7551H11.7523Z" fill="#E8C900" stroke="#E8C900" stroke-width="0.2"/>
<path d="M9.79232 21.7146C8.25256 21.7146 7 20.462 7 18.9222V15.7662C7 14.2264 8.25264 12.9739 9.79232 12.9739C11.332 12.9739 12.5846 14.2265 12.5846 15.7662V16.55C12.5846 16.8618 12.3319 17.1145 12.0201 17.1145C11.7082 17.1145 11.4555 16.8617 11.4555 16.55V15.7662C11.4555 14.849 10.7094 14.103 9.79232 14.103C8.87504 14.103 8.12904 14.849 8.12904 15.7662V18.9222C8.12904 19.8394 8.87504 20.5854 9.79232 20.5854C10.1042 20.5854 10.3568 20.8381 10.3568 21.15C10.3568 21.4618 10.1042 21.7146 9.79232 21.7146Z" fill="#E8C900" stroke="#E8C900" stroke-width="0.2"/>
<path d="M30.8738 21.7145C30.5619 21.7145 30.3093 21.4617 30.3093 21.15C30.3093 20.8382 30.562 20.5854 30.8738 20.5854C31.7911 20.5854 32.5371 19.8393 32.5371 18.9222V15.7662C32.5371 14.849 31.7911 14.103 30.8738 14.103C29.9566 14.103 29.2106 14.849 29.2106 15.7662V16.55C29.2106 16.8618 28.9578 17.1145 28.646 17.1145C28.3342 17.1145 28.0815 16.8617 28.0815 16.55V15.7662C28.0815 14.2264 29.3342 12.9739 30.8739 12.9739C32.4136 12.9739 33.6662 14.2265 33.6662 15.7662V18.9222C33.6661 20.4619 32.4135 21.7145 30.8738 21.7145Z" fill="#E8C900" stroke="#E8C900" stroke-width="0.2"/>
<path d="M20.3331 33.8404C20.0213 33.8404 19.7686 33.5877 19.7686 33.2759V23.1097C19.7686 22.7979 20.0214 22.5452 20.3331 22.5452C20.645 22.5452 20.8976 22.7979 20.8976 23.1097V33.2759C20.8976 33.5877 20.6449 33.8404 20.3331 33.8404Z" fill="#E8C900" stroke="#E8C900" stroke-width="0.2"/>
<path d="M20.3327 38C18.9767 38 17.8735 36.8969 17.8735 35.5409C17.8735 34.1849 18.9767 33.0815 20.3327 33.0815C21.6887 33.0815 22.792 34.1849 22.792 35.5409C22.792 36.8969 21.6887 38 20.3327 38ZM20.3327 34.2107C19.5992 34.2107 19.0027 34.8075 19.0027 35.541C19.0027 36.2744 19.5992 36.8709 20.3327 36.8709C21.0662 36.8709 21.6629 36.2744 21.6629 35.541C21.6629 34.8074 21.0662 34.2107 20.3327 34.2107Z" fill="#E8C900" stroke="#E8C900" stroke-width="0.2"/>
<path d="M12.0199 38C10.6638 38 9.56055 36.8969 9.56055 35.5409C9.56055 34.1849 10.6638 33.0815 12.0199 33.0815C13.3759 33.0815 14.479 34.1849 14.479 35.5409C14.4789 36.8969 13.3759 38 12.0199 38ZM12.0199 34.2107C11.2864 34.2107 10.6896 34.8075 10.6896 35.541C10.6896 36.2744 11.2864 36.8709 12.0199 36.8709C12.7533 36.8709 13.3498 36.2744 13.3498 35.541C13.3498 34.8074 12.7533 34.2107 12.0199 34.2107Z" fill="#E8C900" stroke="#E8C900" stroke-width="0.2"/>
<path d="M12.0201 34.2106C11.7082 34.2106 11.4556 33.9578 11.4556 33.646V31.9735C11.4556 31.1699 11.9945 30.452 12.7659 30.2278L20.1755 28.0732C20.4764 27.9852 20.7883 28.1583 20.8752 28.4576C20.9623 28.757 20.79 29.0702 20.4908 29.1573L13.0812 31.3119C12.7888 31.397 12.5845 31.6689 12.5845 31.9735V33.646C12.5846 33.9578 12.3319 34.2106 12.0201 34.2106Z" fill="#E8C900" stroke="#E8C900" stroke-width="0.2"/>
<path d="M28.6458 38C27.2898 38 26.1865 36.8969 26.1865 35.5409C26.1865 34.1849 27.2898 33.0815 28.6458 33.0815C30.0018 33.0815 31.1052 34.1849 31.1052 35.5409C31.1052 36.8969 30.0019 38 28.6458 38ZM28.6458 34.2107C27.9124 34.2107 27.3156 34.8075 27.3156 35.541C27.3156 36.2744 27.9124 36.8709 28.6458 36.8709C29.3793 36.8709 29.9761 36.2744 29.9761 35.541C29.9761 34.8074 29.3793 34.2107 28.6458 34.2107Z" fill="#E8C900" stroke="#E8C900" stroke-width="0.2"/>
<path d="M28.6457 34.2108C28.3338 34.2108 28.0812 33.958 28.0812 33.6462V31.9737C28.0812 31.6691 27.877 31.3972 27.5846 31.3121L20.175 29.1575C19.8758 29.0704 19.7035 28.7573 19.7907 28.4577C19.8776 28.1582 20.1909 27.9849 20.4904 28.0734L27.9 30.228C28.6714 30.4522 29.2103 31.1701 29.2103 31.9737V33.6461C29.2103 33.958 28.9575 34.2108 28.6457 34.2108Z" fill="#E8C900" stroke="#E8C900" stroke-width="0.2"/>
<path d="M25.1841 15.819H15.482C15.1702 15.819 14.9175 15.5663 14.9175 15.2545C14.9175 14.9427 15.1703 14.6899 15.482 14.6899H25.1842C25.496 14.6899 25.7488 14.9427 25.7488 15.2545C25.7488 15.5663 25.496 15.819 25.1841 15.819Z" fill="#E8C900" stroke="#E8C900" stroke-width="0.2"/>
<path d="M25.1841 11.883H15.482C15.1702 11.883 14.9175 11.6302 14.9175 11.3185C14.9175 11.0066 15.1703 10.7539 15.482 10.7539H25.1842C25.496 10.7539 25.7488 11.0067 25.7488 11.3185C25.7488 11.6303 25.496 11.883 25.1841 11.883Z" fill="#E8C900" stroke="#E8C900" stroke-width="0.2"/>
<path d="M23.1645 7.94675H17.5021C17.1902 7.94675 16.9375 7.69395 16.9375 7.38219C16.9375 7.07035 17.1903 6.81763 17.5021 6.81763H23.1645C23.4764 6.81763 23.7291 7.07043 23.7291 7.38219C23.7291 7.69395 23.4763 7.94675 23.1645 7.94675Z" fill="#E8C900" stroke="#E8C900" stroke-width="0.2"/>
</svg>
