<svg width="224" height="40" viewBox="0 0 224 40" fill="none" xmlns="http://www.w3.org/2000/svg">
<path d="M49.7539 11.334C49.7539 12.2316 49.8966 13.0988 50.1856 13.9381C50.4734 14.7764 50.8892 15.5169 51.4344 16.1602C51.9782 16.8039 52.6471 17.3209 53.4374 17.7114C54.2278 18.102 55.1286 18.2957 56.1348 18.2957C57.1624 18.2957 58.0712 18.0971 58.863 17.6965C59.653 17.2969 60.3222 16.7659 60.8657 16.1023C61.4098 15.4387 61.8216 14.6939 62.0987 13.8647C62.3758 13.0367 62.5145 12.1935 62.5145 11.334C62.5145 10.4375 62.3651 9.56917 62.0679 8.73096C61.7693 7.89303 61.3482 7.15224 60.8033 6.50858C60.2581 5.86522 59.5903 5.35322 58.8002 4.97287C58.0087 4.59224 57.1195 4.40265 56.1334 4.40265C55.106 4.40265 54.1902 4.60248 53.3894 5.00301C52.5883 5.40383 51.9197 5.92841 51.3864 6.58202C50.8519 7.23562 50.4454 7.97641 50.1683 8.80439C49.8926 9.63354 49.7539 10.477 49.7539 11.334ZM56.104 21.8616C54.501 21.8616 53.0471 21.5658 51.7423 20.9707C50.4375 20.375 49.3167 19.5862 48.3825 18.6014C47.447 17.6181 46.7218 16.4917 46.2089 15.2237C45.5157 13.5171 45.292 11.7576 45.5309 9.93928C45.6284 9.19966 45.8168 8.47291 46.0837 7.77922C46.6385 6.33655 47.4461 5.0744 48.5062 3.99422C49.4621 3.01966 50.5974 2.24347 51.9129 1.66827C53.2281 1.09425 54.6569 0.806067 56.1975 0.806067C57.7808 0.806067 59.224 1.1121 60.5287 1.72767C61.8335 2.3409 62.949 3.14606 63.8738 4.13963C64.7986 5.1332 65.5184 6.26575 66.0328 7.53287C66.5457 8.80059 66.8031 10.0876 66.8031 11.3934C66.8031 12.7775 66.5353 14.0985 66.002 15.3565C65.4675 16.6128 64.7266 17.7243 63.7817 18.6901C62.8368 19.6559 61.7055 20.4256 60.3914 21.0008C59.0748 21.576 57.646 21.8616 56.104 21.8616Z" fill="#FFDD00"/>
<path d="M70.3037 13.3903C70.3037 12.5755 70.9415 11.9152 71.728 11.9152H78.9624C79.7491 11.9152 80.387 12.5755 80.387 13.3903C80.387 14.2051 79.7491 14.8655 78.9624 14.8655H71.728C70.9415 14.8655 70.3037 14.2051 70.3037 13.3903Z" fill="white"/>
<path d="M108.978 19.9437C108.629 20.9981 107.6 21.7149 106.436 21.7149H105.861C104.75 21.7149 103.755 21.0613 103.366 20.075L99.4101 10.0735C99.044 9.14836 97.7776 9.15333 97.4183 10.0814L93.5577 20.0586C93.1724 21.0537 92.173 21.7161 91.055 21.7161H90.466C89.2997 21.7161 88.2698 20.9981 87.9218 19.9425L82.1474 2.42477C81.9093 1.7027 82.4276 0.952257 83.1643 0.952257H84.4606C85.6362 0.952257 86.6729 1.6831 87.0128 2.75011L90.1369 12.5738C90.4581 13.584 91.8338 13.5966 92.1719 12.5922L95.4995 2.71091C95.8526 1.66291 96.8788 0.952257 98.0384 0.952257H98.7578C99.9081 0.952257 100.929 1.65297 101.289 2.68808L104.74 12.6089C105.087 13.606 106.456 13.5837 106.773 12.5761L109.859 2.75772C110.196 1.68573 111.235 0.952257 112.414 0.952257H113.763C114.5 0.952257 115.019 1.70387 114.779 2.42623L108.978 19.9437Z" fill="white"/>
<path d="M119.156 11.333C119.156 12.2306 119.299 13.0978 119.588 13.9372C119.876 14.7754 120.292 15.5159 120.837 16.1593C121.381 16.8029 122.049 17.3199 122.84 17.7105C123.63 18.101 124.531 18.2947 125.537 18.2947C126.565 18.2947 127.474 18.0961 128.265 17.6955C129.055 17.2959 129.725 16.7649 130.268 16.1013C130.812 15.4378 131.224 14.6929 131.501 13.8637C131.778 13.0358 131.917 12.1926 131.917 11.333C131.917 10.4365 131.767 9.5682 131.47 8.72998C131.172 7.89205 130.751 7.15126 130.206 6.5076C129.66 5.86424 128.993 5.35224 128.203 4.9719C127.411 4.59126 126.522 4.40167 125.536 4.40167C124.508 4.40167 123.593 4.6015 122.792 5.00203C121.991 5.40285 121.322 5.92743 120.789 6.58104C120.254 7.23464 119.848 7.97544 119.571 8.80341C119.295 9.63256 119.156 10.476 119.156 11.333ZM125.506 21.8606C123.903 21.8606 122.449 21.5648 121.145 20.9697C119.84 20.374 118.719 19.5853 117.785 18.6005C116.849 17.6171 116.124 16.4907 115.611 15.2227C114.918 13.5162 114.694 11.7566 114.933 9.9383C115.031 9.19868 115.219 8.47193 115.486 7.77824C116.041 6.33557 116.848 5.07342 117.909 3.99324C118.864 3.01869 120 2.24249 121.315 1.6673C122.63 1.09327 124.059 0.80509 125.6 0.80509C127.183 0.80509 128.626 1.11112 129.931 1.72669C131.236 2.33992 132.351 3.14508 133.276 4.13865C134.201 5.13223 134.921 6.26477 135.435 7.5319C135.948 8.79961 136.205 10.0866 136.205 11.3924C136.205 12.7765 135.938 14.0975 135.404 15.3556C134.87 16.6119 134.129 17.7233 133.184 18.6891C132.239 19.6549 131.108 20.4247 129.794 20.9998C128.477 21.575 127.048 21.8606 125.506 21.8606Z" fill="#FFDD00"/>
<path d="M42.9419 19.3204C41.9083 19.3204 41.0702 18.4527 41.0702 17.3819C41.0702 16.9494 41.2086 16.5515 41.4397 16.2291C41.2645 16.3333 41.0993 16.4582 40.9498 16.6042C40.9459 16.608 40.0781 17.3438 39.5959 17.5966C39.1135 17.8494 38.6044 18.034 38.0697 18.1516C37.5341 18.2689 37.0212 18.3274 36.528 18.3274C35.5817 18.3274 34.7128 18.1326 33.9224 17.742C33.1309 17.3526 32.4524 16.8356 31.8874 16.1923C31.3225 15.5486 30.8866 14.8028 30.5773 13.9547C30.2683 13.1062 30.1152 12.2238 30.1152 11.3075C30.1152 10.4895 30.2482 9.66528 30.5149 8.83613C30.7827 8.00816 31.1784 7.26737 31.7021 6.61376C32.2273 5.96016 32.8843 5.42797 33.6761 5.01954C34.4662 4.61023 35.3966 4.40514 36.4653 4.40514C36.9585 4.40514 37.4621 4.45956 37.9765 4.56722C38.4898 4.6746 38.9827 4.84399 39.4558 5.07776C39.929 5.31299 40.3702 5.62897 40.7818 6.02833C40.7871 6.0333 40.7911 6.0371 40.7965 6.04237C41.5349 6.76648 42.6758 6.95256 43.5512 6.38117C44.4647 5.78403 44.6215 4.45897 43.8599 3.66552C43.2868 3.06867 42.6052 2.54497 41.8148 2.09441C40.3448 1.25619 38.603 0.836641 36.5893 0.836641C34.8834 0.836641 33.3614 1.13857 32.0261 1.7442C30.6895 2.34719 29.5593 3.13742 28.6345 4.11198C27.7108 5.08771 27.0057 6.19275 26.5235 7.4315C26.041 8.67054 25.7998 9.92304 25.7998 11.1899C25.7998 12.5161 26.0611 13.8166 26.5834 15.0948C27.1071 16.3731 27.8376 17.5129 28.7729 18.517C29.7084 19.5217 30.8228 20.336 32.1179 20.9591C33.4134 21.5838 34.8421 21.8948 36.404 21.8948C37.2875 21.8948 38.1926 21.7874 39.1174 21.5735C40.0422 21.3588 40.9111 21.0463 41.7227 20.6382C42.5357 20.2286 43.2647 19.7268 43.9125 19.1326C43.9726 19.0773 44.0314 19.0211 44.089 18.9641C44.1619 18.8921 44.2243 18.814 44.2819 18.7338C43.9421 19.0952 43.4676 19.3204 42.9419 19.3204Z" fill="#FFDD00"/>
<path d="M43.568 14.8685C42.9519 14.8685 42.407 15.1783 42.0658 15.654C41.8347 15.9765 41.6963 16.3747 41.6963 16.8071C41.6963 17.8776 42.5344 18.7454 43.568 18.7454C44.0937 18.7454 44.5682 18.5204 44.908 18.1588C45.2366 17.8094 45.4397 17.3331 45.4397 16.8071C45.4397 15.7363 44.6016 14.8685 43.568 14.8685Z" fill="#018995"/>
<path d="M177.726 5.673C176.551 5.673 175.599 6.43515 175.599 7.37518V19.7635C175.599 20.8428 176.792 21.717 178.264 21.717C179.141 21.717 179.853 21.148 179.853 20.4458V7.37518C179.853 6.43515 178.9 5.673 177.726 5.673Z" fill="white"/>
<path d="M223.562 11.0688C223.385 10.9684 223.187 10.9157 222.986 10.9157L219.729 10.9146V10.9157H214.761C214.386 10.9157 214.082 11.2311 214.082 11.62C214.082 13.017 215.274 14.1484 216.747 14.1484H219.184C218.886 14.8599 218.492 15.5349 217.977 16.1203C216.823 17.45 215.115 18.2619 213.34 18.2605C211.565 18.2619 209.858 17.45 208.703 16.1203C207.542 14.802 206.902 13.0688 206.913 11.3367C206.902 9.60502 207.542 7.87182 208.703 6.5532C209.857 5.22346 211.564 4.41304 213.34 4.41304C215.002 4.41304 216.346 5.20328 217.264 5.98064C218.192 6.76561 219.551 6.87679 220.575 6.20943L220.804 6.06051C221.502 5.60673 221.609 4.59824 221.023 3.99876L221.011 3.98706C219.1 1.99845 216.248 0.707914 213.34 0.745655C210.432 0.707914 207.579 1.99845 205.669 3.98706C203.722 5.96923 202.662 8.65065 202.649 11.3356C202.662 14.0205 203.722 16.7019 205.669 18.6841C207.58 20.6727 210.432 21.9632 213.34 21.9252C216.248 21.9632 219.102 20.6727 221.011 18.6841C222.814 16.8488 223.846 14.414 223.998 11.9313C224.02 11.5808 223.855 11.2458 223.562 11.0688Z" fill="white"/>
<path d="M177.726 0.000657558C176.551 0.000657558 175.599 0.986917 175.599 2.20372C175.599 3.42024 176.551 4.40649 177.726 4.40649C178.9 4.40649 179.853 3.42024 179.853 2.20372C179.853 0.986917 178.9 0.000657558 177.726 0.000657558Z" fill="#018995"/>
<path d="M199.664 0.986589C198.192 0.986589 196.999 2.11796 196.999 3.51499V14.5839L186.392 1.91199C185.887 1.309 185.118 0.956455 184.305 0.956455H183.883C183.005 0.956455 182.294 1.69286 182.294 2.60159V6.36259V19.6015C182.294 20.7715 183.005 21.72 183.883 21.72C185.355 21.72 186.548 20.2633 186.548 18.4648V8.52558V8.41469L197 20.7744C197.507 21.3721 198.27 21.72 199.08 21.72C200.28 21.72 201.253 20.7121 201.253 19.4689V2.63201C201.253 1.72329 200.542 0.986589 199.664 0.986589Z" fill="white"/>
<path d="M173.1 19.1917L166.139 10.1679L172.136 3.58034C173.04 2.58735 172.36 0.955969 171.043 0.955969C170.278 0.955969 169.55 1.26726 169.044 1.81203L160.652 10.8405V10.7709V4.04845C160.652 2.35592 159.459 0.985226 157.986 0.985226C157.109 0.985226 156.397 1.87786 156.397 2.9791V12.258V14.0357V19.517C156.397 20.7344 157.35 21.7209 158.525 21.7209C159.7 21.7209 160.653 20.7344 160.653 19.517V16.5369C160.653 15.8844 160.918 15.2575 161.394 14.787L163.459 12.7431L169.474 20.6692C169.975 21.3292 170.78 21.7198 171.637 21.7198H171.926C173.186 21.7198 173.886 20.211 173.1 19.1917Z" fill="white"/>
<path d="M149.754 9.17284C149.61 9.58127 149.416 9.93909 149.168 10.2399C148.921 10.5421 148.628 10.7796 148.289 10.9567C147.951 11.1322 147.586 11.2194 147.195 11.2194H141.877V5.84777H141.863V4.49316H147.011C147.382 4.49316 147.746 4.57654 148.106 4.74214C148.464 4.90773 148.784 5.14296 149.061 5.44372C149.338 5.74712 149.558 6.1023 149.724 6.5119C149.887 6.92004 149.97 7.36884 149.97 7.85715C149.97 8.32468 149.897 8.76324 149.754 9.17284ZM150.31 13.911C151.522 13.4242 152.483 12.6293 153.192 11.5269C153.901 10.4256 154.256 9.2021 154.256 7.85803C154.256 7.01864 154.08 6.18569 153.731 5.35654C153.382 4.52827 152.898 3.78777 152.282 3.13416C151.665 2.48056 150.931 1.95334 150.078 1.55515C149.225 1.15433 148.295 0.9548 147.287 0.9548H140.272C138.799 0.9548 137.606 2.08617 137.606 3.48291V5.84777V8.33024V9.16524V17.4804V20.0726C137.606 20.9828 138.319 21.7209 139.198 21.7209C140.67 21.7209 141.863 20.5893 141.863 19.1925V17.4804H141.877V14.7604H146.056L149.747 20.5071C150.231 21.2593 151.093 21.7195 152.023 21.7195C153.429 21.7195 154.269 20.0998 153.493 18.8865L150.31 13.911Z" fill="white"/>
<path d="M31.8526 33.5999C31.8139 33.4348 31.7415 33.282 31.6351 33.1415C31.532 32.9978 31.3999 32.8741 31.2388 32.7702C31.081 32.6632 30.8989 32.5792 30.6927 32.5181C30.4898 32.4569 30.2707 32.4264 30.0355 32.4264C29.7004 32.4264 29.396 32.4737 29.1221 32.5685C28.8515 32.6602 28.6195 32.7977 28.4262 32.981C28.2361 33.1613 28.0895 33.3875 27.9864 33.6595C27.8833 33.9314 27.8318 34.2493 27.8318 34.6129C27.8318 34.9735 27.8833 35.2914 27.9864 35.5664C28.0895 35.8414 28.2361 36.0722 28.4262 36.2586C28.6195 36.445 28.8499 36.5871 29.1173 36.6849C29.3879 36.7796 29.6891 36.827 30.021 36.827C30.5172 36.827 30.9263 36.7277 31.2485 36.529C31.5739 36.3273 31.7753 36.0355 31.8526 35.6535H32.1619C32.1232 35.8857 32.0411 36.0936 31.9154 36.2769C31.793 36.4603 31.6384 36.6146 31.4515 36.7399C31.2678 36.8621 31.0536 36.9569 30.8087 37.0241C30.5671 37.0883 30.3045 37.1204 30.021 37.1204C29.6344 37.1204 29.2864 37.0608 28.9771 36.9416C28.671 36.8224 28.4101 36.6543 28.1942 36.4373C27.9784 36.2204 27.8124 35.9576 27.6964 35.6489C27.5805 35.3403 27.5225 34.9949 27.5225 34.6129C27.5225 34.2309 27.5805 33.8887 27.6964 33.5861C27.8124 33.2805 27.9784 33.0208 28.1942 32.8068C28.4133 32.5899 28.6759 32.4233 28.982 32.3072C29.2912 32.1911 29.6376 32.133 30.021 32.133C30.2852 32.133 30.5349 32.1697 30.7701 32.243C31.0085 32.3133 31.2227 32.4141 31.4128 32.5456C31.6029 32.6739 31.7624 32.8282 31.8913 33.0085C32.0234 33.1858 32.1136 33.3829 32.1619 33.5999H31.8526Z" fill="white"/>
<path d="M35.5654 33.5999C35.8264 33.5999 36.0615 33.6396 36.271 33.7191C36.4804 33.7985 36.6592 33.9146 36.8074 34.0674C36.9556 34.2172 37.0684 34.4005 37.1457 34.6175C37.2262 34.8345 37.2665 35.0805 37.2665 35.3555C37.2665 35.6336 37.2262 35.8827 37.1457 36.1027C37.0652 36.3197 36.9508 36.5046 36.8026 36.6574C36.6544 36.8071 36.4756 36.9217 36.2661 37.0012C36.0567 37.0806 35.8231 37.1204 35.5654 37.1204C35.3076 37.1204 35.0741 37.0822 34.8646 37.0058C34.6584 36.9263 34.4812 36.8117 34.333 36.662C34.1848 36.5092 34.0688 36.3243 33.9851 36.1073C33.9045 35.8873 33.8643 35.6367 33.8643 35.3555C33.8643 35.0774 33.9045 34.8299 33.9851 34.6129C34.0656 34.396 34.18 34.2126 34.3282 34.0628C34.4764 33.9131 34.6552 33.7985 34.8646 33.7191C35.0741 33.6396 35.3076 33.5999 35.5654 33.5999ZM35.5654 36.827C35.7716 36.827 35.9601 36.7964 36.1308 36.7353C36.3016 36.6742 36.4482 36.5825 36.5706 36.4603C36.693 36.335 36.7881 36.1806 36.8557 35.9973C36.9234 35.8139 36.9572 35.6 36.9572 35.3555C36.9572 35.1111 36.9234 34.8971 36.8557 34.7138C36.7881 34.5304 36.693 34.3791 36.5706 34.26C36.4482 34.1377 36.3016 34.046 36.1308 33.9849C35.9601 33.9238 35.7716 33.8932 35.5654 33.8932C35.356 33.8932 35.1659 33.9238 34.9951 33.9849C34.8244 34.046 34.6778 34.1377 34.5553 34.26C34.4329 34.3791 34.3379 34.5304 34.2702 34.7138C34.2058 34.8971 34.1736 35.1111 34.1736 35.3555C34.1736 35.6 34.2058 35.8139 34.2702 35.9973C34.3379 36.1806 34.4329 36.335 34.5553 36.4603C34.6778 36.5825 34.8244 36.6742 34.9951 36.7353C35.1659 36.7964 35.356 36.827 35.5654 36.827Z" fill="white"/>
<path d="M41.9878 35.3606H39.2041V35.0672H41.9878V35.3606Z" fill="white"/>
<path d="M48.8787 33.6005L47.9508 37.121H47.6463L46.6991 34.1505L45.7857 37.1301L45.4764 37.121L44.2393 33.6005H44.5437L45.5006 36.603L46.4865 33.6005H46.7958L47.7768 36.5709L48.5742 33.6005H48.8787Z" fill="white"/>
<path d="M52.1904 33.5999C52.4514 33.5999 52.6865 33.6396 52.896 33.7191C53.1054 33.7985 53.2842 33.9146 53.4324 34.0674C53.5806 34.2172 53.6934 34.4005 53.7707 34.6175C53.8512 34.8345 53.8915 35.0805 53.8915 35.3555C53.8915 35.6336 53.8512 35.8827 53.7707 36.1027C53.6902 36.3197 53.5758 36.5046 53.4276 36.6574C53.2794 36.8071 53.1006 36.9217 52.8911 37.0012C52.6817 37.0806 52.4481 37.1204 52.1904 37.1204C51.9326 37.1204 51.6991 37.0822 51.4896 37.0058C51.2834 36.9263 51.1062 36.8117 50.958 36.662C50.8098 36.5092 50.6938 36.3243 50.6101 36.1073C50.5295 35.8873 50.4893 35.6367 50.4893 35.3555C50.4893 35.0774 50.5295 34.8299 50.6101 34.6129C50.6906 34.396 50.805 34.2126 50.9532 34.0628C51.1014 33.9131 51.2802 33.7985 51.4896 33.7191C51.6991 33.6396 51.9326 33.5999 52.1904 33.5999ZM52.1904 36.827C52.3966 36.827 52.5851 36.7964 52.7558 36.7353C52.9266 36.6742 53.0732 36.5825 53.1956 36.4603C53.318 36.335 53.4131 36.1806 53.4807 35.9973C53.5484 35.8139 53.5822 35.6 53.5822 35.3555C53.5822 35.1111 53.5484 34.8971 53.4807 34.7138C53.4131 34.5304 53.318 34.3791 53.1956 34.26C53.0732 34.1377 52.9266 34.046 52.7558 33.9849C52.5851 33.9238 52.3966 33.8932 52.1904 33.8932C51.981 33.8932 51.7909 33.9238 51.6201 33.9849C51.4494 34.046 51.3028 34.1377 51.1803 34.26C51.0579 34.3791 50.9629 34.5304 50.8952 34.7138C50.8308 34.8971 50.7986 35.1111 50.7986 35.3555C50.7986 35.6 50.8308 35.8139 50.8952 35.9973C50.9629 36.1806 51.0579 36.335 51.1803 36.4603C51.3028 36.5825 51.4494 36.6742 51.6201 36.7353C51.7909 36.7964 51.981 36.827 52.1904 36.827Z" fill="white"/>
<path d="M57.681 33.9024C57.6391 33.8963 57.594 33.8932 57.5457 33.8932C57.5006 33.8932 57.4474 33.8932 57.3862 33.8932C57.2573 33.8932 57.1333 33.9101 57.0141 33.9437C56.8981 33.9773 56.7853 34.0216 56.6758 34.0766C56.5694 34.1316 56.4696 34.1943 56.3761 34.2645C56.2827 34.3348 56.2022 34.4066 56.1345 34.48V37.1204H55.8252V33.5999H56.1345V34.3608C56.2601 34.2019 56.3858 34.072 56.5114 33.9712C56.6371 33.8703 56.7579 33.7924 56.8739 33.7374C56.9899 33.6824 57.101 33.6457 57.2074 33.6274C57.3169 33.609 57.4168 33.5999 57.507 33.5999C57.536 33.5999 57.5634 33.6014 57.5892 33.6045C57.6181 33.6045 57.6488 33.606 57.681 33.609V33.9024Z" fill="white"/>
<path d="M61.9897 37.1204H61.6804L60.2499 34.9521L59.5154 35.6535V37.1204H59.2061V32.133H59.5154V35.3785L61.3905 33.5999H61.6804L60.4432 34.7734L61.9897 37.1204Z" fill="white"/>
<path d="M64.1286 37.1204H63.8193V33.5999H64.1286V37.1204ZM64.1286 32.7197H63.8193V32.133H64.1286V32.7197Z" fill="white"/>
<path d="M66.7282 34.1179C66.8539 33.9987 66.9763 33.9055 67.0955 33.8382C67.2147 33.7679 67.3307 33.716 67.4435 33.6824C67.5595 33.6457 67.6674 33.6228 67.7673 33.6136C67.8704 33.6045 67.967 33.5999 68.0572 33.5999C68.8208 33.5999 69.2026 34.0155 69.2026 34.8467V37.1204H68.8933V34.8375C68.8933 34.6756 68.8772 34.535 68.845 34.4158C68.8128 34.2966 68.7612 34.1988 68.6903 34.1224C68.6195 34.046 68.526 33.9895 68.41 33.9528C68.2973 33.9131 68.1587 33.8932 67.9944 33.8932C67.7753 33.8932 67.5611 33.9452 67.3517 34.0491C67.1422 34.1499 66.9344 34.1958 66.7282 34.1866V37.1204H66.4189V33.5999H66.7282V34.1179Z" fill="white"/>
<path d="M74.2326 36.939C74.2326 37.2232 74.1988 37.4646 74.1311 37.6632C74.0635 37.8649 73.9636 38.0284 73.8315 38.1537C73.6994 38.279 73.5319 38.3707 73.3289 38.4288C73.1259 38.4868 72.8907 38.5159 72.6233 38.5159C72.401 38.5159 72.2012 38.4975 72.024 38.4609C71.8468 38.4242 71.6938 38.3722 71.5649 38.305C71.4361 38.2378 71.3346 38.1537 71.2605 38.0529C71.1896 37.952 71.1493 37.8374 71.1396 37.7091H71.4489C71.4683 37.9108 71.5714 38.059 71.7582 38.1537C71.9483 38.2485 72.2302 38.2958 72.604 38.2958C72.8231 38.2958 73.0148 38.2714 73.1791 38.2225C73.3434 38.1736 73.4803 38.0941 73.5899 37.9841C73.6994 37.8741 73.7816 37.7274 73.8363 37.5441C73.8943 37.3638 73.9233 37.1407 73.9233 36.8748V36.4806C73.7977 36.6578 73.6785 36.7709 73.5657 36.8198C73.4561 36.8656 73.3498 36.9008 73.2467 36.9252C73.1436 36.9466 73.0438 36.9604 72.9471 36.9665C72.8537 36.9726 72.7618 36.9757 72.6716 36.9757C72.4332 36.9757 72.2238 36.9375 72.0434 36.8611C71.863 36.7847 71.7115 36.6777 71.5891 36.5402C71.4667 36.3996 71.3732 36.2315 71.3088 36.0359C71.2476 35.8404 71.217 35.6234 71.217 35.385C71.217 35.1314 71.254 34.9037 71.3281 34.702C71.4054 34.5003 71.5102 34.3292 71.6423 34.1886C71.7776 34.045 71.9354 33.9365 72.1159 33.8631C72.2995 33.7867 72.4977 33.7485 72.7103 33.7485C72.8005 33.7485 72.8939 33.7531 72.9906 33.7623C73.0872 33.7684 73.1871 33.7822 73.2902 33.8035C73.3933 33.8249 73.498 33.854 73.6044 33.8906C73.7107 33.9273 73.817 33.9732 73.9233 34.0282V33.6018H74.2326V36.939ZM73.9233 34.482C73.7364 34.2864 73.5415 34.1397 73.3386 34.0419C73.1388 33.9441 72.9165 33.8952 72.6716 33.8952C72.488 33.8952 72.3205 33.9258 72.169 33.9869C72.0208 34.048 71.8919 34.1412 71.7824 34.2665C71.6761 34.3888 71.5939 34.5431 71.5359 34.7295C71.4779 34.9159 71.4489 35.1344 71.4489 35.385C71.4489 35.8587 71.5537 36.2178 71.7631 36.4622C71.9725 36.7067 72.2657 36.829 72.6426 36.829C72.8907 36.829 73.1179 36.7801 73.3241 36.6823C73.5303 36.5845 73.73 36.4378 73.9233 36.2422V34.482Z" fill="white"/>
<path d="M83.588 37.1206C83.2368 37.1206 82.9292 37.087 82.665 37.0198C82.404 36.9495 82.1849 36.8517 82.0077 36.7264C81.8305 36.598 81.6936 36.4437 81.5969 36.2634C81.5035 36.0831 81.4487 35.8799 81.4326 35.6537H81.7419C81.7806 35.8829 81.8547 36.0724 81.9642 36.2221C82.0738 36.3719 82.2091 36.4926 82.3702 36.5843C82.5313 36.6729 82.7133 36.7356 82.9163 36.7722C83.1225 36.8089 83.3416 36.8272 83.5735 36.8272C83.8152 36.8272 84.0326 36.8043 84.2259 36.7585C84.4193 36.7096 84.5836 36.6408 84.7189 36.5522C84.8574 36.4636 84.9621 36.3581 85.033 36.2359C85.1071 36.1106 85.1442 35.9685 85.1442 35.8096C85.1442 35.6446 85.1136 35.5055 85.0524 35.3924C84.9944 35.2794 84.8945 35.1816 84.7527 35.0991C84.6142 35.0135 84.4305 34.9386 84.2018 34.8745C83.973 34.8072 83.6879 34.7385 83.3464 34.6682C83.0661 34.6101 82.8245 34.5429 82.6215 34.4665C82.4217 34.3901 82.2558 34.3015 82.1237 34.2006C81.9948 34.0998 81.8982 33.9852 81.8337 33.8568C81.7725 33.7254 81.7419 33.5726 81.7419 33.3984C81.7419 33.212 81.7806 33.0409 81.8579 32.885C81.9384 32.7292 82.0496 32.5962 82.1914 32.4862C82.3363 32.3731 82.5103 32.286 82.7133 32.2249C82.9163 32.1638 83.1402 32.1332 83.385 32.1332C83.6299 32.1332 83.8538 32.1607 84.0568 32.2158C84.2598 32.2677 84.437 32.3441 84.5884 32.445C84.7431 32.5458 84.8671 32.6696 84.9605 32.8163C85.0572 32.9599 85.1184 33.1234 85.1442 33.3067H84.8349C84.8027 33.1814 84.7479 33.0653 84.6706 32.9584C84.5965 32.8483 84.4998 32.7551 84.3806 32.6787C84.2614 32.5993 84.1196 32.5382 83.9553 32.4954C83.7942 32.4495 83.6074 32.4266 83.3947 32.4266C82.9533 32.4266 82.6183 32.5107 82.3895 32.6787C82.164 32.8468 82.0512 33.0775 82.0512 33.3709C82.0512 33.5054 82.0722 33.623 82.114 33.7239C82.1591 33.8247 82.2332 33.9149 82.3363 33.9943C82.4427 34.0738 82.5812 34.1441 82.752 34.2052C82.9259 34.2663 83.1402 34.3229 83.3947 34.3748C83.5461 34.4023 83.7008 34.4329 83.8587 34.4665C84.0198 34.497 84.176 34.5337 84.3274 34.5765C84.4789 34.6193 84.6222 34.6728 84.7576 34.7369C84.8961 34.7981 85.0153 34.8745 85.1152 34.9661C85.2183 35.0578 85.3004 35.1678 85.3616 35.2962C85.4229 35.4245 85.4535 35.5758 85.4535 35.75C85.4535 35.9517 85.4068 36.1366 85.3133 36.3047C85.2199 36.4697 85.0894 36.6133 84.9219 36.7356C84.7576 36.8578 84.561 36.9525 84.3323 37.0198C84.1035 37.087 83.8554 37.1206 83.588 37.1206Z" fill="white"/>
<path d="M87.9821 34.4341C88.1078 34.1163 88.2286 33.9222 88.3446 33.8519C88.4606 33.7786 88.5717 33.7236 88.6781 33.6869C88.7876 33.6502 88.8923 33.6273 88.9922 33.6181C89.0953 33.6059 89.1936 33.5998 89.287 33.5998C89.5254 33.5998 89.7364 33.6426 89.9201 33.7281C90.1037 33.8107 90.2568 33.9268 90.3792 34.0765C90.5048 34.2263 90.5999 34.4081 90.6643 34.622C90.732 34.8359 90.7658 35.0713 90.7658 35.328C90.7658 35.603 90.7272 35.8505 90.6498 36.0706C90.5725 36.2906 90.4646 36.4785 90.326 36.6344C90.1907 36.7872 90.0296 36.9064 89.8428 36.9919C89.6591 37.0775 89.4594 37.1203 89.2435 37.1203C89.1501 37.1203 89.0534 37.1172 88.9535 37.1111C88.8569 37.105 88.7554 37.0897 88.6491 37.0653C88.546 37.0378 88.438 36.9996 88.3253 36.9507C88.2157 36.9018 88.1014 36.8346 87.9821 36.749V38.5872H87.6729V33.5998H87.9821V34.4341ZM87.9821 36.3181C88.3494 36.7062 88.7715 36.9003 89.2483 36.9003C89.432 36.9003 89.5979 36.8666 89.7461 36.7994C89.8943 36.7322 90.02 36.6329 90.1231 36.5015C90.2294 36.37 90.3115 36.2065 90.3695 36.011C90.4275 35.8123 90.4565 35.5831 90.4565 35.3234C90.4565 34.8283 90.3534 34.4539 90.1472 34.2003C89.941 33.9466 89.6511 33.8198 89.2773 33.8198C88.7876 33.8198 88.3559 34.075 87.9821 34.5853V36.3181Z" fill="white"/>
<path d="M95.1733 36.3411C95.0348 36.6345 94.8978 36.8132 94.7625 36.8774C94.6304 36.9385 94.5 36.9874 94.3711 37.0241C94.2454 37.0608 94.1198 37.0867 93.9941 37.102C93.8685 37.1142 93.7412 37.1204 93.6123 37.1204C93.4384 37.1204 93.2773 37.099 93.1291 37.0562C92.9809 37.0103 92.852 36.9477 92.7424 36.8682C92.6329 36.7888 92.5459 36.6925 92.4815 36.5795C92.4203 36.4664 92.3896 36.3396 92.3896 36.199C92.3896 35.8262 92.5813 35.5358 92.9647 35.328C93.3514 35.1202 93.9313 35.0163 94.7045 35.0163H95.1733C95.1733 34.8543 95.162 34.7061 95.1395 34.5717C95.1169 34.4342 95.0638 34.315 94.98 34.2141C94.8995 34.1133 94.7786 34.0353 94.6175 33.9803C94.4597 33.9223 94.2438 33.8932 93.97 33.8932C93.564 33.8932 93.2595 33.9421 93.0566 34.0399C92.8568 34.1377 92.7376 34.2844 92.6989 34.48H92.3896C92.4315 34.1836 92.5781 33.9635 92.8294 33.8199C93.084 33.6732 93.4609 33.5999 93.9603 33.5999C94.2374 33.5999 94.4726 33.6304 94.6659 33.6915C94.8592 33.7496 95.0154 33.8337 95.1347 33.9437C95.2571 34.0537 95.3457 34.1881 95.4005 34.3471C95.4552 34.5029 95.4826 34.6802 95.4826 34.8788V37.1204H95.1733V36.3411ZM95.1733 35.3097H94.5306C93.9152 35.3097 93.4561 35.3846 93.1532 35.5343C92.8504 35.684 92.6989 35.8964 92.6989 36.1715C92.6989 36.3793 92.794 36.5413 92.9841 36.6574C93.1774 36.7705 93.44 36.827 93.7718 36.827C93.9168 36.827 94.0569 36.8102 94.1923 36.7766C94.3308 36.7399 94.4597 36.6925 94.5789 36.6345C94.6981 36.5764 94.8076 36.5122 94.9075 36.4419C95.0106 36.3716 95.0992 36.3044 95.1733 36.2402V35.3097Z" fill="white"/>
<path d="M99.1007 37.1204C98.8527 37.1204 98.6239 37.0822 98.4145 37.0058C98.2083 36.9263 98.0311 36.8117 97.8829 36.662C97.7347 36.5122 97.6203 36.3289 97.5398 36.1119C97.4592 35.8919 97.4189 35.6413 97.4189 35.3601C97.4189 35.082 97.4576 34.8345 97.5349 34.6175C97.6155 34.3975 97.7299 34.2126 97.8781 34.0628C98.0263 33.9131 98.2035 33.7985 98.4097 33.7191C98.6191 33.6396 98.8494 33.5999 99.1007 33.5999C99.2844 33.5999 99.4551 33.6197 99.613 33.6595C99.7709 33.6961 99.9094 33.7527 100.029 33.8291C100.151 33.9024 100.254 33.9941 100.338 34.1041C100.422 34.2141 100.48 34.3394 100.512 34.48H100.203C100.187 34.3853 100.148 34.3012 100.087 34.2279C100.025 34.1545 99.9465 34.0934 99.8498 34.0445C99.7532 33.9926 99.6404 33.9544 99.5115 33.9299C99.3859 33.9055 99.2506 33.8932 99.1056 33.8932C98.9026 33.8932 98.7157 33.9238 98.545 33.9849C98.3742 34.046 98.2276 34.1377 98.1052 34.26C97.986 34.3822 97.8926 34.535 97.8249 34.7184C97.7605 34.9017 97.7282 35.1156 97.7282 35.3601C97.7282 35.6046 97.7605 35.8185 97.8249 36.0019C97.8926 36.1852 97.986 36.338 98.1052 36.4603C98.2276 36.5825 98.3742 36.6742 98.545 36.7353C98.7157 36.7964 98.9026 36.827 99.1056 36.827C99.2409 36.827 99.3698 36.8148 99.4922 36.7903C99.6178 36.7659 99.7306 36.7292 99.8305 36.6803C99.9304 36.6314 100.013 36.5703 100.077 36.4969C100.145 36.4236 100.187 36.338 100.203 36.2402H100.512C100.476 36.3839 100.417 36.5107 100.333 36.6207C100.249 36.7307 100.146 36.8239 100.024 36.9003C99.9046 36.9737 99.7661 37.0287 99.6082 37.0654C99.4503 37.102 99.2812 37.1204 99.1007 37.1204Z" fill="white"/>
<path d="M103.852 36.9739C103.578 36.9739 103.33 36.9372 103.108 36.8639C102.886 36.7875 102.694 36.679 102.533 36.5384C102.372 36.3978 102.248 36.2252 102.161 36.0204C102.074 35.8126 102.03 35.5788 102.03 35.3191C102.03 35.0654 102.071 34.8362 102.151 34.6315C102.235 34.4267 102.352 34.2541 102.504 34.1135C102.655 33.9698 102.834 33.8614 103.04 33.788C103.247 33.7116 103.477 33.6734 103.731 33.6734C103.992 33.6734 104.228 33.7101 104.437 33.7834C104.646 33.8568 104.825 33.9637 104.973 34.1043C105.122 34.2418 105.234 34.4114 105.312 34.6131C105.392 34.8118 105.433 35.0364 105.433 35.287V35.3603H102.34C102.362 35.6109 102.414 35.8279 102.494 36.0112C102.578 36.1915 102.686 36.3428 102.818 36.4651C102.953 36.5873 103.108 36.679 103.282 36.7401C103.459 36.7982 103.651 36.8272 103.857 36.8272C104.002 36.8272 104.147 36.8089 104.292 36.7722C104.437 36.7355 104.567 36.6805 104.683 36.6072C104.803 36.5308 104.903 36.4376 104.983 36.3275C105.064 36.2145 105.11 36.0876 105.123 35.9471H105.433C105.394 36.1121 105.328 36.2588 105.234 36.3871C105.141 36.5124 105.025 36.6194 104.886 36.708C104.748 36.7966 104.59 36.8639 104.413 36.9097C104.239 36.9525 104.052 36.9739 103.852 36.9739ZM105.123 35.0669C105.052 34.6758 104.893 34.3824 104.645 34.1868C104.4 33.9912 104.097 33.8934 103.736 33.8934C103.556 33.8934 103.388 33.9179 103.234 33.9668C103.079 34.0126 102.94 34.0844 102.818 34.1822C102.699 34.28 102.597 34.4023 102.514 34.549C102.433 34.6956 102.375 34.8683 102.34 35.0669H105.123Z" fill="white"/>
<path d="M116.963 37.1204H116.659L115.775 35.3601H113.068C112.939 35.6688 112.814 35.9637 112.691 36.2448C112.572 36.5229 112.448 36.8148 112.319 37.1204H112.015C112.195 36.6895 112.374 36.2677 112.551 35.8552C112.728 35.4426 112.904 35.0331 113.078 34.6267C113.252 34.2172 113.427 33.8061 113.605 33.3936C113.782 32.981 113.961 32.5608 114.141 32.133H114.45L116.963 37.1204ZM115.625 35.0667L114.31 32.4585L113.199 35.0667H115.625Z" fill="white"/>
<path d="M118.871 34.4341C118.996 34.1163 119.117 33.9222 119.233 33.8519C119.349 33.7786 119.46 33.7236 119.567 33.6869C119.676 33.6502 119.781 33.6273 119.881 33.6181C119.984 33.6059 120.082 33.5998 120.176 33.5998C120.414 33.5998 120.625 33.6426 120.809 33.7281C120.992 33.8107 121.145 33.9268 121.268 34.0765C121.394 34.2263 121.489 34.4081 121.553 34.622C121.621 34.8359 121.654 35.0713 121.654 35.328C121.654 35.603 121.616 35.8505 121.538 36.0706C121.461 36.2906 121.353 36.4785 121.215 36.6344C121.079 36.7872 120.918 36.9064 120.731 36.9919C120.548 37.0775 120.348 37.1203 120.132 37.1203C120.039 37.1203 119.942 37.1172 119.842 37.1111C119.746 37.105 119.644 37.0897 119.538 37.0653C119.435 37.0378 119.327 36.9996 119.214 36.9507C119.104 36.9018 118.99 36.8346 118.871 36.749V38.5872H118.562V33.5998H118.871V34.4341ZM118.871 36.3181C119.238 36.7062 119.66 36.9003 120.137 36.9003C120.321 36.9003 120.487 36.8666 120.635 36.7994C120.783 36.7322 120.909 36.6329 121.012 36.5015C121.118 36.37 121.2 36.2065 121.258 36.011C121.316 35.8123 121.345 35.5831 121.345 35.3234C121.345 34.8283 121.242 34.4539 121.036 34.2003C120.83 33.9466 120.54 33.8198 120.166 33.8198C119.676 33.8198 119.245 34.075 118.871 34.5853V36.3181Z" fill="white"/>
<path d="M123.896 34.4341C124.022 34.1163 124.143 33.9222 124.259 33.8519C124.375 33.7786 124.486 33.7236 124.592 33.6869C124.702 33.6502 124.806 33.6273 124.906 33.6181C125.009 33.6059 125.108 33.5998 125.201 33.5998C125.439 33.5998 125.651 33.6426 125.834 33.7281C126.018 33.8107 126.171 33.9268 126.293 34.0765C126.419 34.2263 126.514 34.4081 126.578 34.622C126.646 34.8359 126.68 35.0713 126.68 35.328C126.68 35.603 126.641 35.8505 126.564 36.0706C126.487 36.2906 126.379 36.4785 126.24 36.6344C126.105 36.7872 125.944 36.9064 125.757 36.9919C125.573 37.0775 125.373 37.1203 125.158 37.1203C125.064 37.1203 124.967 37.1172 124.868 37.1111C124.771 37.105 124.669 37.0897 124.563 37.0653C124.46 37.0378 124.352 36.9996 124.239 36.9507C124.13 36.9018 124.015 36.8346 123.896 36.749V38.5872H123.587V33.5998H123.896V34.4341ZM123.896 36.3181C124.263 36.7062 124.686 36.9003 125.162 36.9003C125.346 36.9003 125.512 36.8666 125.66 36.7994C125.808 36.7322 125.934 36.6329 126.037 36.5015C126.143 36.37 126.226 36.2065 126.284 36.011C126.342 35.8123 126.371 35.5831 126.371 35.3234C126.371 34.8283 126.267 34.4539 126.061 34.2003C125.855 33.9466 125.565 33.8198 125.191 33.8198C124.702 33.8198 124.27 34.075 123.896 34.5853V36.3181Z" fill="white"/>
<path d="M138.237 32.5896C138.299 32.5896 138.352 32.6131 138.397 32.6599C138.447 32.7068 138.471 32.7643 138.471 32.8325C138.471 32.8964 138.447 32.9539 138.397 33.005C138.352 33.0519 138.299 33.0753 138.237 33.0753C138.171 33.0753 138.115 33.0519 138.07 33.005C138.025 32.9539 138.002 32.8964 138.002 32.8325C138.002 32.7643 138.025 32.7068 138.07 32.6599C138.115 32.6131 138.171 32.5896 138.237 32.5896ZM138.841 32.5896C138.907 32.5896 138.963 32.6131 139.008 32.6599C139.053 32.7068 139.076 32.7643 139.076 32.8325C139.076 32.8964 139.053 32.9539 139.008 33.005C138.963 33.0519 138.907 33.0753 138.841 33.0753C138.78 33.0753 138.726 33.0519 138.681 33.005C138.636 32.9539 138.613 32.8964 138.613 32.8325C138.613 32.7643 138.636 32.7068 138.681 32.6599C138.726 32.6131 138.78 32.5896 138.841 32.5896ZM139.082 33.8742V36.2962C139.082 36.3857 139.107 36.456 139.156 36.5071C139.214 36.5667 139.282 36.5966 139.36 36.5966L139.366 36.9353H139.218C139.049 36.9353 138.909 36.8607 138.798 36.7116C138.494 36.9118 138.185 37.012 137.873 37.012C137.441 37.012 137.099 36.8458 136.849 36.5135C136.643 36.2408 136.54 35.9064 136.54 35.5102C136.54 35.0117 136.696 34.607 137.009 34.2959C137.285 34.0233 137.626 33.8869 138.033 33.8869C138.268 33.8869 138.496 33.9359 138.718 34.0339L138.903 33.8742H139.082ZM138.718 34.3726C138.512 34.2619 138.301 34.2065 138.083 34.2065C137.716 34.2065 137.418 34.3513 137.188 34.641C136.999 34.8839 136.904 35.1736 136.904 35.5102C136.904 35.8766 137.009 36.1684 137.219 36.3857C137.404 36.5731 137.64 36.6669 137.928 36.6669C138.155 36.6669 138.42 36.5817 138.724 36.4112L138.718 34.3726Z" fill="white"/>
<path d="M140.469 36.5961V36.9348H139.327V36.5961H140.469Z" fill="white"/>
<path d="M141.568 36.5961V36.9348H140.427V36.5961H141.568Z" fill="white"/>
<path d="M142.664 36.5961V36.9348H141.522V36.5961H142.664Z" fill="white"/>
<path d="M143.764 36.5961V36.9348H142.622V36.5961H143.764Z" fill="white"/>
<path d="M146.344 32.2569V32.5828L144.697 33.5606C145.351 33.6756 145.9 34.0164 146.344 34.5831C146.735 35.0773 146.93 35.6183 146.93 36.2063C146.93 36.692 146.757 36.9348 146.412 36.9348H143.722V36.5961H146.27C146.476 36.5961 146.578 36.4555 146.578 36.1743C146.578 35.5736 146.34 35.0347 145.863 34.5575C145.46 34.157 145.007 33.927 144.505 33.8673C144.485 33.863 144.474 33.8503 144.474 33.829V33.3688L146.344 32.2569Z" fill="white"/>
<path d="M148.928 33.9956V36.5966H149.243V36.9353H148.928C148.924 37.9493 148.375 38.4563 147.281 38.4563C147.207 38.4563 147.145 38.4542 147.096 38.4499L146.917 38.2198V38.1112C147.028 38.1197 147.135 38.124 147.238 38.124C147.694 38.124 148.03 38.0345 148.244 37.8556C148.466 37.6681 148.577 37.3742 148.577 36.9737V33.9956H148.928Z" fill="white"/>
<path d="M150.342 36.5961V36.9348H149.2V36.5961H150.342Z" fill="white"/>
<path d="M150.991 32.5892C151.057 32.5892 151.112 32.6126 151.157 32.6595C151.203 32.7063 151.225 32.7639 151.225 32.832C151.225 32.8959 151.203 32.9534 151.157 33.0046C151.112 33.0514 151.057 33.0749 150.991 33.0749C150.929 33.0749 150.876 33.0514 150.83 33.0046C150.785 32.9534 150.763 32.8959 150.763 32.832C150.763 32.7639 150.785 32.7063 150.83 32.6595C150.876 32.6126 150.929 32.5892 150.991 32.5892ZM151.602 32.5892C151.663 32.5892 151.717 32.6126 151.762 32.6595C151.811 32.7063 151.836 32.7639 151.836 32.832C151.836 32.8959 151.811 32.9534 151.762 33.0046C151.717 33.0514 151.663 33.0749 151.602 33.0749C151.536 33.0749 151.48 33.0514 151.435 33.0046C151.39 32.9534 151.367 32.8959 151.367 32.832C151.367 32.7639 151.39 32.7063 151.435 32.6595C151.48 32.6126 151.536 32.5892 151.602 32.5892ZM151.774 33.9951V36.4044C151.774 36.464 151.762 36.5279 151.737 36.5961H152.077V36.9348H151.811L151.676 36.7367H151.657C151.55 36.8688 151.423 36.9348 151.275 36.9348H150.3V36.5961H151.133C151.231 36.5961 151.306 36.5663 151.355 36.5066C151.4 36.4555 151.423 36.3852 151.423 36.2958V33.9951H151.774Z" fill="white"/>
<path d="M153.176 36.5961V36.9348H152.034V36.5961H153.176Z" fill="white"/>
<path d="M156.649 32.0907C156.711 32.0907 156.764 32.1141 156.809 32.161C156.854 32.2079 156.877 32.2633 156.877 32.3272C156.877 32.3953 156.854 32.4528 156.809 32.4997C156.764 32.5466 156.711 32.57 156.649 32.57C156.583 32.57 156.527 32.5466 156.482 32.4997C156.437 32.4528 156.414 32.3953 156.414 32.3272C156.414 32.2633 156.437 32.2079 156.482 32.161C156.527 32.1141 156.583 32.0907 156.649 32.0907ZM156.34 32.5892C156.406 32.5892 156.462 32.6126 156.507 32.6595C156.552 32.7063 156.575 32.7639 156.575 32.832C156.575 32.8959 156.552 32.9534 156.507 33.0046C156.462 33.0514 156.406 33.0749 156.34 33.0749C156.279 33.0749 156.223 33.0514 156.174 33.0046C156.128 32.9534 156.106 32.8959 156.106 32.832C156.106 32.7639 156.128 32.7063 156.174 32.6595C156.223 32.6126 156.279 32.5892 156.34 32.5892ZM156.951 32.5892C157.017 32.5892 157.072 32.6126 157.118 32.6595C157.163 32.7063 157.186 32.7639 157.186 32.832C157.186 32.8959 157.163 32.9534 157.118 33.0046C157.072 33.0514 157.017 33.0749 156.951 33.0749C156.889 33.0749 156.834 33.0514 156.785 33.0046C156.739 32.9534 156.717 32.8959 156.717 32.832C156.717 32.7639 156.739 32.7063 156.785 32.6595C156.834 32.6126 156.889 32.5892 156.951 32.5892ZM158.488 33.9951V36.4044C158.488 36.464 158.475 36.5279 158.45 36.5961H158.79V36.9348H158.525L158.389 36.7367H158.37C158.263 36.8688 158.136 36.9348 157.988 36.9348H156.859L156.717 36.7367H156.704C156.597 36.8688 156.47 36.9348 156.322 36.9348H155.193L155.051 36.7367H155.038C154.931 36.8688 154.804 36.9348 154.656 36.9348H153.132V36.5961H154.508C154.701 36.5961 154.798 36.496 154.798 36.2958V34.73H155.156V36.4044C155.156 36.4683 155.143 36.5322 155.119 36.5961H156.174C156.367 36.5961 156.464 36.496 156.464 36.2958V34.3594H156.822V36.4044C156.822 36.464 156.809 36.5279 156.785 36.5961H157.846C158.039 36.5961 158.136 36.496 158.136 36.2958V33.9951H158.488Z" fill="white"/>
<path d="M159.89 36.5961V36.9348H158.749V36.5961H159.89Z" fill="white"/>
<path d="M160.984 36.5961V36.9348H159.843V36.5961H160.984Z" fill="white"/>
<path d="M162.195 36.5978C161.993 36.3166 161.893 35.9651 161.893 35.5433C161.893 35.015 162.026 34.606 162.294 34.3163C162.536 34.0564 162.861 33.9265 163.269 33.9265C163.602 33.9265 163.865 34.0031 164.058 34.1565C164.301 34.3525 164.422 34.6571 164.422 35.0704V36.2974C164.422 36.3869 164.447 36.4572 164.496 36.5083C164.554 36.5679 164.618 36.5978 164.688 36.5978H164.712V36.9365H164.558C164.385 36.9365 164.248 36.8619 164.145 36.7128C163.894 36.9897 163.598 37.1282 163.256 37.1282C162.87 37.1282 162.555 36.9982 162.312 36.7383H162.3L162.158 36.9365H160.942V36.5978H162.195ZM164.064 35.0704C164.064 34.819 163.982 34.6124 163.818 34.4505C163.674 34.3269 163.491 34.2652 163.269 34.2652C162.923 34.2652 162.656 34.41 162.466 34.6997C162.318 34.9298 162.244 35.211 162.244 35.5433C162.244 35.9182 162.345 36.225 162.547 36.4635C162.732 36.6808 162.966 36.7895 163.25 36.7895C163.554 36.7895 163.826 36.6574 164.064 36.3932V35.0704Z" fill="white"/>
<path d="M165.805 36.5961V36.9348H164.663V36.5961H165.805Z" fill="white"/>
<path d="M167.237 32.3591V36.4044C167.237 36.5492 167.186 36.6749 167.083 36.7814C166.984 36.8837 166.869 36.9348 166.738 36.9348H165.763V36.5961H166.596C166.686 36.5961 166.756 36.5727 166.805 36.5258C166.859 36.4704 166.886 36.3937 166.886 36.2958V32.3591H167.237Z" fill="white"/>
<path d="M168.451 32.3585V36.9406L168.266 37.094H168.093V32.3585H168.451Z" fill="white"/>
<path d="M172.608 33.8226C172.674 33.8226 172.73 33.8481 172.775 33.8993C172.82 33.9461 172.843 34.0015 172.843 34.0654C172.843 34.1336 172.82 34.1911 172.775 34.238C172.73 34.2848 172.674 34.3083 172.608 34.3083C172.547 34.3083 172.491 34.2848 172.442 34.238C172.397 34.1911 172.374 34.1336 172.374 34.0654C172.374 34.0015 172.397 33.9461 172.442 33.8993C172.491 33.8481 172.547 33.8226 172.608 33.8226ZM173.219 33.8226C173.281 33.8226 173.334 33.8481 173.38 33.8993C173.425 33.9461 173.448 34.0015 173.448 34.0654C173.448 34.1336 173.425 34.1911 173.38 34.238C173.334 34.2848 173.281 34.3083 173.219 34.3083C173.153 34.3083 173.098 34.2848 173.053 34.238C173.007 34.1911 172.985 34.1336 172.985 34.0654C172.985 34.0015 173.007 33.9461 173.053 33.8993C173.098 33.8481 173.153 33.8226 173.219 33.8226ZM175.373 33.9951V36.4044C175.373 36.5492 175.321 36.6749 175.218 36.7814C175.124 36.8837 175.009 36.9348 174.873 36.9348H171.319C171.088 36.9348 170.887 36.8453 170.714 36.6664C170.529 36.4704 170.437 36.234 170.437 35.957V34.6086L170.615 34.4552H170.794V35.9251C170.794 36.1126 170.846 36.2638 170.949 36.3788C171.072 36.5237 171.245 36.5961 171.467 36.5961H174.731C174.924 36.5961 175.021 36.496 175.021 36.2958V33.9951H175.373Z" fill="white"/>
<path d="M176.587 32.3591V36.2958C176.587 36.3895 176.61 36.4619 176.655 36.513C176.705 36.5684 176.777 36.5961 176.871 36.5961H176.902V36.9348H176.729C176.598 36.9348 176.485 36.8837 176.39 36.7814C176.283 36.6749 176.229 36.5492 176.229 36.4044V32.3591H176.587Z" fill="white"/>
<path d="M177.994 36.5961V36.9348H176.853V36.5961H177.994Z" fill="white"/>
<path d="M179.096 36.5961V36.9348H177.954V36.5961H179.096Z" fill="white"/>
<path d="M179.87 34.091C180.237 33.9717 180.568 33.912 180.864 33.912C181.304 33.912 181.66 34.059 181.931 34.353C182.174 34.6129 182.295 34.9388 182.295 35.3308V36.4044C182.295 36.562 182.236 36.6962 182.116 36.807C182.018 36.8922 181.911 36.9348 181.796 36.9348H179.05V36.5961H181.647C181.841 36.5961 181.937 36.496 181.937 36.2958V35.4522C181.937 34.6427 181.549 34.238 180.771 34.238C180.492 34.238 180.191 34.287 179.87 34.3849V34.091Z" fill="white"/>
<path d="M183.419 32.3591V36.2958C183.419 36.3895 183.442 36.4619 183.487 36.513C183.537 36.5684 183.609 36.5961 183.703 36.5961H183.734V36.9348H183.561C183.43 36.9348 183.317 36.8837 183.222 36.7814C183.115 36.6749 183.062 36.5492 183.062 36.4044V32.3591H183.419Z" fill="white"/>
<path d="M184.828 36.5961V36.9348H183.687V36.5961H184.828Z" fill="white"/>
<path d="M185.924 36.5961V36.9348H184.782V36.5961H185.924Z" fill="white"/>
<path d="M191.238 33.9951V36.4044C191.238 36.464 191.225 36.5279 191.2 36.5961H191.54V36.9348H191.275L191.139 36.7367H191.12C191.013 36.8688 190.886 36.9348 190.738 36.9348H189.609L189.467 36.7367H189.454C189.347 36.8688 189.22 36.9348 189.072 36.9348H187.943L187.801 36.7367H187.788C187.681 36.8688 187.554 36.9348 187.406 36.9348H185.882V36.5961H187.258C187.451 36.5961 187.548 36.496 187.548 36.2958V34.73H187.906V36.4044C187.906 36.4683 187.893 36.5322 187.869 36.5961H188.924C189.117 36.5961 189.214 36.496 189.214 36.2958V34.3594H189.572V36.4044C189.572 36.464 189.559 36.5279 189.535 36.5961H190.596C190.789 36.5961 190.886 36.496 190.886 36.2958V33.9951H191.238Z" fill="white"/>
<path d="M192.637 36.5961V36.9348H191.495V36.5961H192.637Z" fill="white"/>
<path d="M193.74 36.5961V36.9348H192.599V36.5961H193.74Z" fill="white"/>
<path d="M194.943 36.5978C194.741 36.3166 194.641 35.9651 194.641 35.5433C194.641 35.015 194.774 34.606 195.042 34.3163C195.284 34.0564 195.609 33.9265 196.017 33.9265C196.35 33.9265 196.613 34.0031 196.806 34.1565C197.049 34.3525 197.17 34.6571 197.17 35.0704V36.2974C197.17 36.3869 197.195 36.4572 197.244 36.5083C197.302 36.5679 197.366 36.5978 197.436 36.5978H197.46V36.9365H197.306C197.133 36.9365 196.996 36.8619 196.893 36.7128C196.642 36.9897 196.346 37.1282 196.004 37.1282C195.618 37.1282 195.303 36.9982 195.06 36.7383H195.048L194.906 36.9365H193.69V36.5978H194.943ZM196.813 35.0704C196.813 34.819 196.73 34.6124 196.566 34.4505C196.422 34.3269 196.239 34.2652 196.017 34.2652C195.671 34.2652 195.404 34.41 195.214 34.6997C195.066 34.9298 194.992 35.211 194.992 35.5433C194.992 35.9182 195.093 36.225 195.295 36.4635C195.48 36.6808 195.714 36.7895 195.998 36.7895C196.302 36.7895 196.574 36.6574 196.813 36.3932V35.0704Z" fill="white"/>
<path d="M198.553 36.5961V36.9348H197.411V36.5961H198.553Z" fill="white"/>
<path d="M199.985 32.3591V36.4044C199.985 36.5492 199.934 36.6749 199.831 36.7814C199.732 36.8837 199.617 36.9348 199.486 36.9348H198.511V36.5961H199.344C199.434 36.5961 199.504 36.5727 199.553 36.5258C199.607 36.4704 199.634 36.3937 199.634 36.2958V32.3591H199.985Z" fill="white"/>
<path d="M201.203 32.3585V36.9406L201.017 37.094H200.845V32.3585H201.203Z" fill="white"/>
<path d="M204.799 32.5896C204.861 32.5896 204.914 32.6131 204.96 32.6599C205.009 32.7068 205.034 32.7643 205.034 32.8325C205.034 32.8964 205.009 32.9539 204.96 33.005C204.914 33.0519 204.861 33.0753 204.799 33.0753C204.734 33.0753 204.678 33.0519 204.633 33.005C204.587 32.9539 204.565 32.8964 204.565 32.8325C204.565 32.7643 204.587 32.7068 204.633 32.6599C204.678 32.6131 204.734 32.5896 204.799 32.5896ZM205.404 32.5896C205.47 32.5896 205.525 32.6131 205.571 32.6599C205.616 32.7068 205.638 32.7643 205.638 32.8325C205.638 32.8964 205.616 32.9539 205.571 33.005C205.525 33.0519 205.47 33.0753 205.404 33.0753C205.342 33.0753 205.289 33.0519 205.244 33.005C205.198 32.9539 205.176 32.8964 205.176 32.8325C205.176 32.7643 205.198 32.7068 205.244 32.6599C205.289 32.6131 205.342 32.5896 205.404 32.5896ZM205.645 33.8742V36.2962C205.645 36.3857 205.669 36.456 205.719 36.5071C205.776 36.5667 205.844 36.5966 205.922 36.5966L205.928 36.9353H205.78C205.612 36.9353 205.472 36.8607 205.361 36.7116C205.056 36.9118 204.748 37.012 204.435 37.012C204.003 37.012 203.662 36.8458 203.411 36.5135C203.205 36.2408 203.103 35.9064 203.103 35.5102C203.103 35.0117 203.259 34.607 203.571 34.2959C203.847 34.0233 204.188 33.8869 204.596 33.8869C204.83 33.8869 205.058 33.9359 205.281 34.0339L205.466 33.8742H205.645ZM205.281 34.3726C205.075 34.2619 204.863 34.2065 204.645 34.2065C204.279 34.2065 203.981 34.3513 203.75 34.641C203.561 34.8839 203.467 35.1736 203.467 35.5102C203.467 35.8766 203.571 36.1684 203.781 36.3857C203.966 36.5731 204.203 36.6669 204.491 36.6669C204.717 36.6669 204.982 36.5817 205.287 36.4112L205.281 34.3726Z" fill="white"/>
<path d="M207.025 36.5961V36.9348H205.884V36.5961H207.025Z" fill="white"/>
<path d="M208.125 36.5961V36.9348H206.983V36.5961H208.125Z" fill="white"/>
<path d="M209.547 35.7142C209.897 35.0027 210.292 34.5085 210.732 34.2316C211.069 34.0228 211.474 33.9184 211.947 33.9184C212.375 33.9184 212.729 34.0548 213.009 34.3274C213.297 34.6171 213.441 34.9963 213.441 35.465V36.4044C213.441 36.464 213.428 36.5279 213.404 36.5961H213.737V36.9348H213.471L213.336 36.7367H213.323C213.216 36.8688 213.089 36.9348 212.941 36.9348H208.085V36.5961H209.196V33.9951H209.547V35.7142ZM213.083 35.3435C213.083 35.0112 212.986 34.7492 212.793 34.5575C212.575 34.3402 212.283 34.2316 211.917 34.2316C211.53 34.2316 211.191 34.3296 210.899 34.5255C210.335 34.9005 209.889 35.5906 209.56 36.5961H212.793C212.986 36.5961 213.083 36.496 213.083 36.2958V35.3435Z" fill="white"/>
<path d="M214.834 36.5961V36.9348H213.692V36.5961H214.834Z" fill="white"/>
<path d="M215.93 36.5961V36.9348H214.788V36.5961H215.93Z" fill="white"/>
<path d="M217.19 32.5892C217.251 32.5892 217.305 32.6126 217.35 32.6595C217.399 32.7063 217.424 32.7639 217.424 32.832C217.424 32.8959 217.399 32.9534 217.35 33.0046C217.305 33.0514 217.251 33.0749 217.19 33.0749C217.124 33.0749 217.068 33.0514 217.023 33.0046C216.978 32.9534 216.955 32.8959 216.955 32.832C216.955 32.7639 216.978 32.7063 217.023 32.6595C217.068 32.6126 217.124 32.5892 217.19 32.5892ZM217.362 33.9951V36.4044C217.362 36.464 217.35 36.5279 217.325 36.5961H217.665V36.9348H217.399L217.264 36.7367H217.245C217.138 36.8688 217.011 36.9348 216.863 36.9348H215.888V36.5961H216.721C216.819 36.5961 216.893 36.5663 216.943 36.5066C216.988 36.4555 217.011 36.3852 217.011 36.2958V33.9951H217.362Z" fill="white"/>
<path d="M218.762 36.5961V36.9348H217.62V36.5961H218.762Z" fill="white"/>
<path d="M219.859 36.5961V36.9348H218.718V36.5961H219.859Z" fill="white"/>
<path d="M220.928 35.0679C220.928 34.6759 221.035 34.382 221.249 34.186C221.45 34.0113 221.726 33.924 222.076 33.924C222.479 33.924 222.802 34.0518 223.044 34.3074C223.32 34.5971 223.458 35.0083 223.458 35.5408C223.458 35.9669 223.351 36.3247 223.137 36.6144C222.878 36.9595 222.528 37.1321 222.088 37.1321C221.751 37.1321 221.457 36.9915 221.206 36.7103C221.099 36.8594 220.959 36.934 220.786 36.934H219.817V36.5953H220.638C220.72 36.5953 220.79 36.5654 220.848 36.5058C220.901 36.4547 220.928 36.3844 220.928 36.2949V35.0679ZM221.28 36.3908C221.527 36.6592 221.8 36.7934 222.1 36.7934C222.425 36.7934 222.682 36.6528 222.872 36.3716C223.024 36.1415 223.1 35.8646 223.1 35.5408C223.1 35.217 223.028 34.9401 222.884 34.71C222.699 34.4118 222.429 34.2627 222.076 34.2627C221.854 34.2627 221.673 34.3245 221.533 34.448C221.364 34.6099 221.28 34.8165 221.28 35.0679V36.3908Z" fill="white"/>
<path d="M130.817 39.9993H131.204V30.9594H130.817V39.9993Z" fill="white"/>
</svg>
