<svg width="24" height="25" viewBox="0 0 24 25" fill="none" xmlns="http://www.w3.org/2000/svg">
<path d="M21.0802 8.83711V15.6771C21.0802 16.7971 20.4802 17.8371 19.5102 18.4071L13.5702 21.8371C12.6002 22.3971 11.4002 22.3971 10.4202 21.8371L4.48016 18.4071C3.51016 17.8471 2.91016 16.8071 2.91016 15.6771V8.83711C2.91016 7.71711 3.51016 6.67707 4.48016 6.10707L10.4202 2.67708C11.3902 2.11708 12.5902 2.11708 13.5702 2.67708L19.5102 6.10707C20.4802 6.67707 21.0802 7.70711 21.0802 8.83711Z" stroke="#7A8586" stroke-width="1.5" stroke-linecap="round" stroke-linejoin="round"/>
<path d="M11.9999 11.2571C13.2867 11.2571 14.3299 10.2139 14.3299 8.92712C14.3299 7.6403 13.2867 6.59717 11.9999 6.59717C10.7131 6.59717 9.66992 7.6403 9.66992 8.92712C9.66992 10.2139 10.7131 11.2571 11.9999 11.2571Z" stroke="#7A8586" stroke-width="1.5" stroke-linecap="round" stroke-linejoin="round"/>
<path d="M16 16.9172C16 15.1172 14.21 13.6572 12 13.6572C9.79 13.6572 8 15.1172 8 16.9172" stroke="#7A8586" stroke-width="1.5" stroke-linecap="round" stroke-linejoin="round"/>
</svg>
