<svg width="41" height="40" viewBox="0 0 41 40" fill="none" xmlns="http://www.w3.org/2000/svg">
<path d="M11.5044 16.4776C11.9776 16.4508 12.4514 16.5198 12.8972 16.6807C13.3431 16.8415 13.7519 17.0907 14.0991 17.4134C14.4463 17.7361 14.7247 18.1256 14.9177 18.5585C15.1106 18.9915 15.2141 19.4589 15.2219 19.9329C15.3022 21.1119 15.2286 22.2964 15.003 23.4565C14.7635 24.6476 13.7692 26.8072 11.5044 26.8072C9.23954 26.8072 8.24526 24.6476 8.00573 23.4565C7.78014 22.2964 7.70655 21.1119 7.7868 19.9329C7.79464 19.4589 7.89813 18.9915 8.09108 18.5585C8.28402 18.1256 8.56244 17.7361 8.90962 17.4134C9.25681 17.0907 9.6656 16.8415 10.1115 16.6807C10.5574 16.5198 11.0311 16.4508 11.5044 16.4776Z" stroke="#E8C900" stroke-width="1.5" stroke-linecap="round" stroke-linejoin="round"/>
<path d="M18.1733 27.5837L19.1961 25.0842H36.4395L32.4619 37.7075" stroke="#E8C900" stroke-width="1.5" stroke-linecap="round" stroke-linejoin="round"/>
<path d="M25.0137 37.9993H38.0039" stroke="#E8C900" stroke-width="1.5" stroke-linecap="round" stroke-linejoin="round"/>
<path d="M15.3105 35.6528L16.651 37.5431C16.7703 37.6863 16.9196 37.8014 17.0883 37.8805C17.257 37.9595 17.4411 38.0004 17.6274 38.0005H25.6401V36.4465C25.6401 35.9004 25.4431 35.3727 25.0853 34.9602C24.7276 34.5477 24.233 34.278 23.6924 34.2009L19.8467 33.5399L16.4633 28.9096C15.9787 28.3034 15.3639 27.8139 14.6645 27.4776C13.9651 27.1412 13.1989 26.9666 12.4228 26.9666H7.64157C6.3963 26.9666 5.20204 27.4612 4.3215 28.3418C3.44097 29.2223 2.94629 30.4166 2.94629 31.6618" stroke="#E8C900" stroke-width="1.5" stroke-linecap="round" stroke-linejoin="round"/>
<path d="M12.8261 37.9986L12.0641 33.8943C11.9708 33.3235 11.6814 32.8031 11.2457 32.4228C10.81 32.0425 10.2553 31.826 9.67718 31.8107H4.41792C4.07239 31.801 3.72896 31.8676 3.41209 32.0057C3.09521 32.1438 2.81268 32.3501 2.5846 32.6098C2.35652 32.8696 2.18851 33.1764 2.09251 33.5085C1.99651 33.8406 1.9749 34.1897 2.0292 34.5311L2.65284 37.9986" stroke="#E8C900" stroke-width="1.5" stroke-linecap="round" stroke-linejoin="round"/>
<path d="M28.2179 21.5637C33.6202 21.5637 37.9997 17.1842 37.9997 11.7818C37.9997 6.37947 33.6202 2 28.2179 2C22.8155 2 18.436 6.37947 18.436 11.7818C18.436 17.1842 22.8155 21.5637 28.2179 21.5637Z" stroke="#E8C900" stroke-width="1.5" stroke-linecap="round" stroke-linejoin="round"/>
<path d="M19.5229 11.7832H36.9127" stroke="#E8C900" stroke-width="1.5" stroke-linecap="round" stroke-linejoin="round"/>
<path d="M28.2179 21.5637C30.6192 21.5637 32.5658 17.1842 32.5658 11.7818C32.5658 6.37947 30.6192 2 28.2179 2C25.8167 2 23.8701 6.37947 23.8701 11.7818C23.8701 17.1842 25.8167 21.5637 28.2179 21.5637Z" stroke="#E8C900" stroke-width="1.5" stroke-linecap="round" stroke-linejoin="round"/>
</svg>
